<svg xmlns="http://www.w3.org/2000/svg" width="951.85" height="1282.462" viewBox="0 0 951.85 1282.462">
    <defs>
        <style>
            .prefix__cls-2{fill:#b5935e}
        </style>
    </defs>
    <g id="prefix__Group_7482" data-name="Group 7482" transform="translate(11784.621 7529.793)" style="opacity:.35">
        <g id="prefix__Group_7444" data-name="Group 7444" transform="translate(-11784.621 -7529.793)">
            <path id="prefix__Path_24710" d="M903.168 1873.924c0 195.594-130.58 354.31-292.165 355.915l-41.323 101.837a350.139 350.139 0 0 0 38.865 2.183c220.149 0 398.6-205.917 398.6-459.935S828.693 1414 608.545 1414a349.368 349.368 0 0 0-63.86 5.9l-3.42 107.412a247.191 247.191 0 0 1 67.28-9.332c162.719.001 294.623 159.365 294.623 355.944z" class="prefix__cls-2" data-name="Path 24710" transform="translate(-55.299 -1387.338)"/>
            <path id="prefix__Path_24711" d="M681.967 1764a116.492 116.492 0 0 1 26.774 3.133l53.409-91.98a219.45 219.45 0 0 0-85.407-15.089c-116.258 2.736-211.189 97-214.643 213.233a220 220 0 0 0 219.867 226.643h294.62v-103.98H683.8c-61.984 0-114.452-47.912-117.66-109.81A115.986 115.986 0 0 1 681.967 1764z" class="prefix__cls-2" data-name="Path 24711" transform="translate(-187.376 -977.436)"/>
            <path id="prefix__Path_24712" d="M545.743 2208.526l223.872-175.461a219.454 219.454 0 0 0 80.805 13.447c116.684-2.5 212.015-97.354 215.062-214.026 3.032-116.08-83.89-212.472-196.07-224.55l-14.062 103.119a115.987 115.987 0 0 1 105.818 125.417c-4.538 54.86-48.081 99.457-102.8 105.413a115.943 115.943 0 0 1-96.372-34.965l-82.05 64.312-90.055 70.582-24-58.664 118.969-194.76 60.747 20.883 61.324-50.658-75.208-46.949 55.662-91.12L359 1404l282.139 256.488-191.408 313.349z" class="prefix__cls-2" data-name="Path 24712" transform="translate(-359 -1404)"/>
            <path id="prefix__Path_24713" d="M1070.231 1846H417v103.977h783.88V1846z" class="prefix__cls-2" data-name="Path 24713" transform="translate(-262.358 -667.515)"/>
        </g>
    </g>
</svg>
