<svg xmlns="http://www.w3.org/2000/svg" width="10.813" height="20" viewBox="0 0 10.813 20">
    <path fill="#75768d" d="M32.483 0h-2.594a4.555 4.555 0 0 0-4.8 4.922v2.269h-2.604a.408.408 0 0 0-.408.408v3.288a.408.408 0 0 0 .408.408h2.608v8.3A.408.408 0 0 0 25.5 20h3.4a.408.408 0 0 0 .408-.408V11.3h3.049a.408.408 0 0 0 .408-.408V7.6a.408.408 0 0 0-.408-.408H29.31V5.268c0-.925.22-1.394 1.425-1.394h1.747a.408.408 0 0 0 .408-.408V.412A.408.408 0 0 0 32.483 0z" transform="translate(-22.077)"/>
</svg>
