<svg xmlns="http://www.w3.org/2000/svg" width="32" height="32.498" viewBox="0 0 32 32.498">
    <g>
        <g>
            <path fill="#1877f2" d="M99.5 83.5A16 16 0 1 0 81 99.307V88.129h-4.058V83.5H81v-3.524c0-4.007 2.385-6.225 6.041-6.225a24.41 24.41 0 0 1 3.586.316V78h-2.016a2.31 2.31 0 0 0-2.6 2.5v3h4.436l-.71 4.629h-3.73v11.178A16 16 0 0 0 99.5 83.5z" transform="translate(4227 5374.498) translate(-4294.5 -5441.5)"/>
            <path fill="#fff" d="M187.891 153.178l.71-4.629h-4.436v-3a2.314 2.314 0 0 1 2.6-2.5h2.016v-3.936a24.41 24.41 0 0 0-3.586-.316c-3.656 0-6.041 2.218-6.041 6.225v3.524H175.1v4.629h4.059v11.178a15.667 15.667 0 0 0 2.5.193 16.76 16.76 0 0 0 2.5-.193v-11.175z" transform="translate(4227 5374.498) translate(-4294.5 -5441.5) translate(-98.167 -65.049)"/>
        </g>
    </g>
</svg>
