<svg xmlns="http://www.w3.org/2000/svg" width="20" height="19.113" viewBox="0 0 20 19.113">
    <path fill="#75768d" d="M24.916 16.082a4.25 4.25 0 0 0-3.861 2.129v-1.825h-4.287c.056 1.208 0 12.9 0 12.9h4.286v-7.209a2.91 2.91 0 0 1 .139-1.046 2.358 2.358 0 0 1 2.2-1.569c1.551 0 2.171 1.182 2.171 2.918v6.9h4.287v-7.4c0-3.959-2.117-5.8-4.927-5.8zm-3.864 2.174h-.027a.4.4 0 0 0 .027-.043zM10.1 16.386h4.286v12.9H10.1zm2.172-6.218a2.234 2.234 0 1 0-.069 4.456h.028a2.235 2.235 0 1 0 .029-4.456z" transform="translate(-9.852 -10.169)"/>
</svg>
