<svg xmlns="http://www.w3.org/2000/svg" width="36" height="29.295" viewBox="0 0 36 29.295">
    <defs>
        <style>
            .cls-1{fill:#2fbfff}
        </style>
    </defs>
    <g id="right-quotation-sign" transform="rotate(180 18 14.648)">
        <g id="Group_2821">
            <path id="Path_2231" d="M68.231 21.006C66.319 14.168 61.6 9.2 57.017 9.2a6.3 6.3 0 0 0-1.095.1.727.727 0 0 0-.576.913l.944 3.376a.736.736 0 0 0 .732.531h.078c1.7 0 4.808 2.548 6.392 8.212.063.225.122.455.179.694a8.278 8.278 0 0 0-5.821-.549 8.161 8.161 0 1 0 4.4 15.718c2.858-.8 5.007-3.172 6.051-6.68a19.5 19.5 0 0 0-.07-10.509z" class="cls-1" transform="translate(-32.985 -9.204)"/>
            <path id="Path_2232" d="M5.132 9.206a6.3 6.3 0 0 0-1.094.094.728.728 0 0 0-.576.913l.944 3.376a.731.731 0 0 0 .732.531h.074c1.7 0 4.808 2.548 6.393 8.212.063.226.122.456.179.694a8.278 8.278 0 0 0-5.821-.549A8.161 8.161 0 1 0 10.36 38.2c2.858-.8 5.006-3.172 6.051-6.68a19.5 19.5 0 0 0-.064-10.51C14.434 14.169 9.718 9.206 5.132 9.206z" class="cls-1" transform="translate(0 -9.205)"/>
        </g>
    </g>
</svg>
