<svg xmlns="http://www.w3.org/2000/svg" width="20" height="16.668" viewBox="0 0 20 16.668">
    <path fill="#75768d" d="M17.955 4.15c.005.182.011.363.011.545 0 5.559-4.128 11.973-11.674 11.973A11.432 11.432 0 0 1 0 14.777a8.425 8.425 0 0 0 .977.059 8.125 8.125 0 0 0 5.1-1.8 4.124 4.124 0 0 1-3.834-2.921 4.081 4.081 0 0 0 .769.075 4.316 4.316 0 0 0 1.127-.15A4.149 4.149 0 0 1 .887 5.912v-.048a3.851 3.851 0 0 0 1.821.523A4.289 4.289 0 0 1 1.4.769a11.541 11.541 0 0 0 8.454 4.4 4.069 4.069 0 0 1-.109-.956A4.156 4.156 0 0 1 13.849 0a4.048 4.048 0 0 1 2.995 1.324A8 8 0 0 0 19.45.3a4.18 4.18 0 0 1-1.806 2.328A7.911 7.911 0 0 0 20 1.971a8.367 8.367 0 0 1-2.045 2.179z"/>
</svg>
