<svg width="247" height="44" viewBox="0 0 247 44" fill="none" xmlns="http://www.w3.org/2000/svg">
<g filter="url(#filter0_d_4103:294875)">
<path d="M14.3 3.00098H30.7C32.7687 3.00098 34.7526 3.82276 36.2154 5.28554C37.6782 6.74833 38.5 8.73229 38.5 10.801V27.186C38.5 29.2547 37.6782 31.2386 36.2154 32.7014C34.7526 34.1642 32.7687 34.986 30.7 34.986H14.3C12.2313 34.986 10.2474 34.1642 8.78457 32.7014C7.32178 31.2386 6.5 29.2547 6.5 27.186V10.801C6.5 8.73229 7.32178 6.74833 8.78457 5.28554C10.2474 3.82276 12.2313 3.00098 14.3 3.00098V3.00098Z" fill="#0E1445"/>
</g>
<path d="M32.7669 10.7381C33.226 11.0388 33.6607 11.3752 34.0669 11.7441L37.9269 7.88614C37.5234 6.89338 36.9203 5.99411 36.1549 5.24414L31.4629 9.93414C31.8069 10.1431 32.2329 10.4041 32.7669 10.7381Z" fill="#FC4C4C"/>
<path d="M8.02399 24.506C9.15899 24.506 10.298 24.458 11.434 24.369C11.7689 23.2631 12.1679 22.1775 12.629 21.118C11.0279 21.2997 9.41747 21.3882 7.80603 21.383C7.35711 21.3723 6.91412 21.2776 6.5 21.104V24.349C6.91585 24.4404 7.33941 24.4923 7.76501 24.504L8.02399 24.506Z" fill="#00C896"/>
<path d="M8.539 30.082C9.197 30.082 9.85598 30.055 10.514 30.013C10.5485 28.9563 10.6528 27.903 10.826 26.86C10.045 26.922 9.27 26.954 8.526 26.96C8.172 26.9496 7.8255 26.8553 7.51501 26.685C7.20453 26.5146 6.93891 26.273 6.73999 25.98L6.5 26.144V27.205C6.50163 28.0973 6.65727 28.9826 6.96002 29.822C7.44972 29.9811 7.95938 30.0703 8.474 30.087L8.539 30.082Z" fill="#FC4C4C"/>
<path d="M18.6 16.944L21.188 13.481L16.983 14.494C14.2796 15.1455 11.5141 15.5046 8.73401 15.565C7.91806 15.5909 7.12167 15.3121 6.5 14.783V18.326C7.24293 18.5859 8.02724 18.7076 8.81403 18.685C10.5615 18.6476 12.3048 18.501 14.034 18.246C12.9607 20.1946 12.0895 22.248 11.434 24.374C11.234 25.035 11.057 25.703 10.903 26.384C10.873 26.543 10.853 26.705 10.827 26.865C10.6538 27.908 10.5496 28.9613 10.515 30.018C10.496 30.607 10.491 31.196 10.515 31.784H8C8.69666 32.7444 9.60368 33.5328 10.6517 34.089C11.6998 34.6452 12.8611 34.9544 14.047 34.993C13.5049 32.3642 13.4767 29.6554 13.964 27.016C14.7814 23.3691 16.3613 19.9366 18.6 16.944Z" fill="#FFC300"/>
<path d="M25.4206 20.904C27.2826 19.74 31.2446 20.64 32.4836 21.048L33.1976 21.284L38.4976 17.822V16.553L38.0826 16.04C36.8479 14.5136 35.5066 13.0766 34.0686 11.74C33.6624 11.3711 33.2277 11.0347 32.7686 10.734C32.2346 10.4 31.8086 10.14 31.4686 9.93402L31.3796 9.88101L32.2396 6.71503L25.2016 8.25601C24.3576 7.29301 22.6396 6.186 19.1886 6.104C17.3907 6.15402 15.6152 6.51643 13.9416 7.17502C11.0486 8.15402 9.70163 8.498 8.08563 6.332L8.00659 6.22601C7.31981 7.16419 6.85297 8.24487 6.64062 9.388C9.41263 11.995 12.4476 10.976 14.9406 10.131C16.2673 9.58634 17.6795 9.27932 19.1126 9.224C22.0216 9.293 22.7946 10.2 22.9436 10.429L23.0206 11.929L27.8806 10.865L27.7186 11.483L28.8726 12.05C28.8946 12.061 29.4226 12.324 31.1096 13.381C32.3733 14.348 33.5233 15.455 34.5376 16.681L32.7266 17.863C30.9546 17.379 26.6156 16.478 23.7716 18.252C23.0894 18.6822 22.5138 19.2618 22.0881 19.9469C21.6625 20.632 21.398 21.4048 21.3146 22.207C21.0216 24.359 21.4936 25.991 22.7146 27.054C23.7523 27.8751 25.0531 28.2909 26.3746 28.224C27.7614 28.1828 29.1362 27.9541 30.4616 27.544C33.0941 26.8363 35.7855 26.3693 38.5026 26.149V23.021C35.5109 23.2463 32.5469 23.7519 29.6496 24.531L29.5716 24.553C26.2956 25.474 25.1556 25.043 24.7716 24.705C24.2996 24.294 24.3166 23.351 24.4146 22.633C24.4323 22.2855 24.5328 21.9472 24.7078 21.6465C24.8828 21.3457 25.1272 21.0911 25.4206 20.904Z" fill="#2FBFFF"/>
<path d="M33.4795 32.1802C33.4693 32.9277 33.5363 33.6744 33.6795 34.4082C34.8061 33.9403 35.8074 33.2153 36.6036 32.2912C36.6036 32.2862 36.6036 32.2772 36.6036 32.2712L33.4795 32.1802Z" fill="#2FBFFF"/>
<path d="M22.5605 35.0019H27.3226C28.0326 34.4179 28.3786 34.1659 28.3876 34.1599L26.5876 31.6108C25.1876 32.6708 23.8434 33.8027 22.5605 35.0019Z" fill="#2FBFFF"/>
<path d="M48.2428 21.7518C48.2074 22.7163 48.3794 23.6773 48.7472 24.5697C49.115 25.4621 49.6701 26.2652 50.3748 26.9248C51.9364 28.293 53.9681 29.0014 56.0418 28.9008C58.0992 28.997 60.1132 28.2883 61.6568 26.9248C62.3616 26.2652 62.9166 25.4621 63.2844 24.5697C63.6522 23.6773 63.8242 22.7163 63.7888 21.7518V10.0008H59.2388V21.7518C59.2388 23.6518 57.9908 24.7418 56.0148 24.7418C54.0388 24.7418 52.7908 23.6498 52.7908 21.7518V10.0008H48.2408L48.2428 21.7518ZM71.0168 28.5888V22.5318C71.0168 20.4778 72.0308 18.9698 73.9288 18.9698C74.9168 18.9698 75.4108 19.5698 75.4108 20.7378V28.5888H79.9108V19.9058C79.9108 16.5518 78.2988 14.8888 75.1018 14.8888C74.2465 14.8415 73.3948 15.0329 72.6419 15.4415C71.889 15.8501 71.2644 16.4599 70.8378 17.2028H70.7858L70.8378 16.3708V15.2008H66.5188V28.5898L71.0168 28.5888ZM86.9758 13.5108V10.0008H82.5848V13.5108H86.9758ZM87.0278 28.5888V15.1998H82.5278V28.5888H87.0278ZM89.0278 21.8818C89.0131 22.8009 89.1824 23.7138 89.5259 24.5665C89.8694 25.4192 90.38 26.1945 91.0278 26.8468C91.7474 27.5464 92.6037 28.0899 93.543 28.4433C94.4823 28.7968 95.4845 28.9525 96.4868 28.9008C98.6146 28.9295 100.672 28.1381 102.232 26.6908L100.594 23.5448C99.6052 24.5052 98.3038 25.0774 96.9278 25.1568C96.4849 25.1743 96.0431 25.1004 95.63 24.9397C95.2168 24.779 94.8412 24.5349 94.5266 24.2227C94.2119 23.9105 93.9649 23.5368 93.801 23.1249C93.6371 22.713 93.5597 22.2718 93.5738 21.8288C93.5554 21.4036 93.6256 20.9793 93.7799 20.5827C93.9342 20.1861 94.1692 19.826 94.4701 19.5251C94.771 19.2242 95.1312 18.9891 95.5278 18.8348C95.9244 18.6805 96.3487 18.6103 96.7738 18.6288C97.9534 18.6279 99.0849 19.0955 99.9198 19.9288L101.82 16.9128C101.111 16.2372 100.275 15.7098 99.3597 15.3616C98.4447 15.0134 97.4693 14.8513 96.4908 14.8848C95.4868 14.8374 94.4837 14.9977 93.5444 15.3556C92.6051 15.7135 91.7498 16.2613 91.0318 16.9648C90.3885 17.6103 89.8804 18.3777 89.5372 19.222C89.194 20.0662 89.0225 20.9705 89.0328 21.8818H89.0278ZM110.398 14.8888C108.416 14.829 106.489 15.5369 105.017 16.8648C104.306 17.5 103.742 18.2826 103.365 19.1581C102.988 20.0336 102.806 20.9808 102.833 21.9338C102.804 22.8832 102.984 23.8274 103.362 24.699C103.739 25.5707 104.304 26.3484 105.017 26.9768C106.515 28.2722 108.444 28.9587 110.424 28.9008C112.403 28.9587 114.333 28.2722 115.831 26.9768C116.543 26.3484 117.108 25.5707 117.486 24.699C117.863 23.8274 118.044 22.8832 118.015 21.9338C118.048 20.9775 117.866 20.026 117.484 19.1489C117.102 18.2719 116.528 17.4914 115.805 16.8648C114.327 15.533 112.39 14.8246 110.402 14.8878L110.398 14.8888ZM107.382 21.9338C107.352 21.5144 107.408 21.0933 107.547 20.6965C107.686 20.2997 107.905 19.9355 108.19 19.6264C108.475 19.3172 108.82 19.0697 109.204 18.899C109.588 18.7283 110.003 18.638 110.424 18.6338C110.844 18.638 111.259 18.7283 111.644 18.899C112.028 19.0697 112.373 19.3172 112.658 19.6264C112.943 19.9355 113.162 20.2997 113.301 20.6965C113.439 21.0933 113.496 21.5144 113.466 21.9338C113.493 22.3487 113.434 22.7648 113.293 23.1559C113.152 23.5471 112.932 23.9051 112.646 24.2076C112.361 24.51 112.016 24.7505 111.634 24.9139C111.252 25.0774 110.84 25.1604 110.424 25.1578C110.008 25.1597 109.597 25.0762 109.215 24.9124C108.834 24.7486 108.49 24.5081 108.205 24.2057C107.92 23.9033 107.7 23.5456 107.56 23.1548C107.419 22.7639 107.36 22.3483 107.387 21.9338H107.382ZM124.514 28.5888V23.3888C124.514 20.8668 125.788 19.3588 128.206 19.3588C128.511 19.3445 128.817 19.3708 129.116 19.4368V15.0168C128.944 14.9903 128.77 14.9729 128.596 14.9648C127.627 15.0067 126.696 15.3499 125.931 15.9464C125.167 16.543 124.608 17.3632 124.332 18.2928H124.28L124.332 17.4608V15.1988H120.021V28.5878L124.514 28.5888ZM135.329 28.5888V22.5318C135.329 20.4778 136.343 18.9698 138.241 18.9698C139.229 18.9698 139.723 19.5698 139.723 20.7378V28.5888H144.223V19.9058C144.223 16.5518 142.611 14.8888 139.414 14.8888C138.558 14.8415 137.707 15.0329 136.954 15.4415C136.201 15.8501 135.576 16.4599 135.15 17.2028H135.098L135.15 16.3708V15.2008H130.836V28.5898L135.329 28.5888ZM146.776 19.3338C146.703 21.8623 147.628 24.318 149.35 26.1708C150.206 27.0733 151.245 27.7834 152.397 28.2541C153.549 28.7247 154.787 28.9452 156.031 28.9008C157.327 28.9257 158.616 28.6874 159.818 28.2003C161.02 27.7132 162.11 26.9874 163.024 26.0668L161.984 24.7928C161.214 25.5727 160.295 26.189 159.281 26.6045C158.267 27.0201 157.179 27.2263 156.084 27.2108C155.074 27.2477 154.068 27.0618 153.138 26.6664C152.208 26.271 151.377 25.6757 150.703 24.9228C149.326 23.382 148.591 21.373 148.649 19.3078C148.581 17.3 149.31 15.347 150.677 13.8748C151.359 13.1536 152.188 12.5859 153.106 12.2093C154.025 11.8328 155.013 11.656 156.006 11.6908C158.044 11.6938 160.018 12.4003 161.595 13.6908L162.557 12.3648C161.668 11.5535 160.627 10.9267 159.494 10.5206C158.361 10.1145 157.159 9.93711 155.957 9.99876C154.731 9.95915 153.51 10.177 152.373 10.6383C151.236 11.0995 150.209 11.794 149.357 12.6768C148.503 13.557 147.834 14.5998 147.391 15.7434C146.947 16.8869 146.738 18.1079 146.776 19.3338ZM164.714 21.9858C164.694 22.9017 164.862 23.812 165.205 24.6611C165.549 25.5103 166.063 26.2805 166.714 26.9248C167.351 27.57 168.113 28.0782 168.953 28.418C169.793 28.7578 170.695 28.9221 171.601 28.9008C172.507 28.9221 173.408 28.7578 174.249 28.418C175.089 28.0782 175.851 27.57 176.488 26.9248C177.148 26.2857 177.669 25.5171 178.018 24.6671C178.367 23.8172 178.536 22.9043 178.516 21.9858C178.536 21.0827 178.366 20.1855 178.016 19.3525C177.667 18.5195 177.146 17.7693 176.488 17.1508C175.846 16.514 175.083 16.0132 174.243 15.6781C173.403 15.3431 172.505 15.1807 171.601 15.2008C170.697 15.1807 169.798 15.3431 168.959 15.6781C168.119 16.0132 167.356 16.514 166.714 17.1508C166.064 17.7743 165.55 18.5259 165.205 19.3582C164.86 20.1904 164.692 21.0851 164.711 21.9858H164.714ZM166.534 21.9858C166.516 21.3041 166.636 20.6259 166.886 19.9916C167.136 19.3573 167.512 18.7799 167.99 18.2938C168.454 17.804 169.015 17.4167 169.637 17.157C170.26 16.8973 170.93 16.7708 171.604 16.7858C172.278 16.7708 172.948 16.8973 173.571 17.157C174.193 17.4167 174.754 17.804 175.218 18.2938C175.704 18.775 176.087 19.351 176.342 19.986C176.597 20.6211 176.719 21.3017 176.7 21.9858C176.722 22.6864 176.602 23.3843 176.347 24.0373C176.093 24.6904 175.708 25.2851 175.218 25.7858C174.754 26.2756 174.193 26.6628 173.571 26.9225C172.948 27.1823 172.278 27.3087 171.604 27.2938C170.93 27.3087 170.26 27.1823 169.637 26.9225C169.015 26.6628 168.454 26.2756 167.99 25.7858C167.507 25.2804 167.13 24.6843 166.879 24.032C166.629 23.3797 166.511 22.6842 166.531 21.9858H166.534ZM183.328 28.5858V22.1858C183.305 21.4895 183.419 20.7954 183.665 20.1434C183.91 19.4914 184.281 18.8941 184.758 18.3858C185.205 17.8939 185.751 17.5027 186.361 17.2382C186.97 16.9737 187.629 16.842 188.294 16.8518C190.582 16.8518 191.154 18.2518 191.154 20.7258V28.5768H192.922V20.2578C192.922 16.9038 191.674 15.1888 188.528 15.1888C187.287 15.1389 186.069 15.5356 185.096 16.3068C184.297 16.9011 183.662 17.6883 183.25 18.5948H183.198L183.298 17.5548V15.5158H181.556V28.5928L183.328 28.5858ZM198.51 28.5858V22.1858C198.487 21.4895 198.601 20.7954 198.847 20.1434C199.092 19.4914 199.463 18.8941 199.94 18.3858C200.387 17.8939 200.933 17.5027 201.543 17.2382C202.152 16.9737 202.811 16.842 203.476 16.8518C205.764 16.8518 206.336 18.2518 206.336 20.7258V28.5768H208.104V20.2578C208.104 16.9038 206.856 15.1888 203.71 15.1888C202.467 15.141 201.249 15.5409 200.276 16.3158C199.477 16.9101 198.842 17.6973 198.43 18.6038H198.376L198.476 17.5638V15.5158H196.734V28.5928L198.51 28.5858ZM211.041 22.0608C211.009 22.97 211.165 23.876 211.501 24.7217C211.836 25.5673 212.344 26.3342 212.991 26.9738C213.641 27.6043 214.411 28.0991 215.254 28.4294C216.097 28.7597 216.998 28.9189 217.904 28.8978C219.681 28.8857 221.395 28.2404 222.739 27.0778L221.933 25.7258C220.857 26.7389 219.432 27.2978 217.955 27.2858C216.632 27.3148 215.352 26.8194 214.393 25.9078C213.894 25.4118 213.503 24.8185 213.243 24.1647C212.984 23.511 212.862 22.8108 212.885 22.1078H222.92C222.946 21.7178 222.972 21.4318 222.972 21.2238C223.03 19.6678 222.522 18.1434 221.542 16.9338C221.052 16.35 220.432 15.8886 219.733 15.5862C219.033 15.2837 218.273 15.1487 217.512 15.1918C216.653 15.1703 215.8 15.3255 215.004 15.6475C214.207 15.9695 213.486 16.4515 212.884 17.0638C212.257 17.7311 211.77 18.5175 211.453 19.3764C211.136 20.2353 210.995 21.1492 211.038 22.0638L211.041 22.0608ZM212.962 20.7158C213.065 19.5981 213.586 18.5604 214.42 17.8089C215.253 17.0574 216.339 16.6472 217.462 16.6598C219.542 16.6598 221.076 18.1158 221.18 20.7158H212.962ZM225.155 22.0678C225.122 22.9809 225.279 23.8909 225.615 24.7407C225.95 25.5906 226.457 26.362 227.105 27.0068C227.756 27.6339 228.527 28.125 229.37 28.4512C230.214 28.7774 231.114 28.9323 232.018 28.9068C232.964 28.9238 233.905 28.7481 234.781 28.3906C235.658 28.033 236.453 27.501 237.118 26.8268L236.312 25.5008C235.77 26.0649 235.12 26.5144 234.401 26.8226C233.682 27.1308 232.908 27.2914 232.126 27.2948C231.444 27.3124 230.766 27.1925 230.132 26.9424C229.497 26.6922 228.92 26.3169 228.434 25.8388C227.951 25.3401 227.573 24.7494 227.323 24.1017C227.073 23.4541 226.955 22.7627 226.978 22.0688C226.955 21.3703 227.072 20.6742 227.322 20.0216C227.572 19.369 227.95 18.773 228.434 18.2688C228.905 17.7829 229.471 17.4003 230.098 17.1451C230.725 16.89 231.398 16.768 232.074 16.7868C233.509 16.8067 234.88 17.3849 235.896 18.3988L236.806 17.0728C236.174 16.4572 235.425 15.9744 234.603 15.6529C233.782 15.3314 232.904 15.1777 232.022 15.2008C231.118 15.1783 230.218 15.3396 229.378 15.6747C228.538 16.0099 227.775 16.512 227.135 17.1508C226.478 17.7847 225.962 18.5498 225.621 19.3963C225.28 20.2428 225.121 21.1517 225.154 22.0638L225.155 22.0678ZM240.337 23.8358C240.337 26.4618 241.455 27.6838 242.651 28.2558C243.361 28.5731 244.135 28.7242 244.913 28.6978C245.165 28.6962 245.417 28.6788 245.667 28.6458V27.0598C245.469 27.0936 245.268 27.111 245.067 27.1118C244.053 27.1118 242.103 26.6698 242.103 23.6538V17.1028H245.403V15.6158H242.103V11.8978H240.361V15.6158H238.619V17.0978H240.335L240.337 23.8358Z" fill="#0E1445"/>
<defs>
<filter id="filter0_d_4103:294875" x="0.5" y="0.000976562" width="44" height="43.9849" filterUnits="userSpaceOnUse" color-interpolation-filters="sRGB">
<feFlood flood-opacity="0" result="BackgroundImageFix"/>
<feColorMatrix in="SourceAlpha" type="matrix" values="0 0 0 0 0 0 0 0 0 0 0 0 0 0 0 0 0 0 127 0" result="hardAlpha"/>
<feOffset dy="3"/>
<feGaussianBlur stdDeviation="3"/>
<feColorMatrix type="matrix" values="0 0 0 0 0 0 0 0 0 0 0 0 0 0 0 0 0 0 0.161 0"/>
<feBlend mode="normal" in2="BackgroundImageFix" result="effect1_dropShadow_4103:294875"/>
<feBlend mode="normal" in="SourceGraphic" in2="effect1_dropShadow_4103:294875" result="shape"/>
</filter>
</defs>
</svg>
