<svg width="24" height="25" viewBox="0 0 24 25" fill="none"
                                xmlns="http://www.w3.org/2000/svg">
                                <circle cx="12" cy="12.7852" r="10" fill="#1DA1F2" />
                                <path fill-rule="evenodd" clip-rule="evenodd"
                                    d="M18 8.93948C17.5588 9.13547 17.0841 9.26746 16.5861 9.32705C17.0945 9.02227 17.4848 8.5399 17.6684 7.96514C17.1933 8.24752 16.6657 8.45191 16.1053 8.5627C15.6562 8.08434 15.0158 7.78516 14.3082 7.78516C12.9487 7.78516 11.8464 8.88748 11.8464 10.247C11.8464 10.4398 11.8684 10.6278 11.9104 10.8082C9.86414 10.7058 8.05026 9.72543 6.83594 8.23593C6.62396 8.5995 6.50277 9.02228 6.50277 9.47345C6.50277 10.3274 6.93674 11.0809 7.59789 11.5225C7.19392 11.5097 6.81474 11.3989 6.48237 11.2145V11.2453C6.48237 12.4384 7.33151 13.4332 8.45704 13.66C8.25065 13.716 8.03306 13.7464 7.80868 13.7464C7.64989 13.7464 7.4955 13.7308 7.34511 13.702C7.65829 14.6799 8.56783 15.3919 9.64496 15.4118C8.80261 16.0718 7.74108 16.4658 6.58756 16.4658C6.38837 16.4658 6.19239 16.4542 6 16.431C7.08953 17.1293 8.38344 17.5373 9.77375 17.5373C14.3018 17.5373 16.7781 13.786 16.7781 10.533C16.7781 10.4262 16.7761 10.3198 16.7709 10.2146C17.2525 9.86662 17.67 9.43305 18 8.93948Z"
                                    fill="white" />
                            </svg>