<svg width="246" height="44" viewBox="0 0 246 44" fill="none" xmlns="http://www.w3.org/2000/svg">
<g filter="url(#filter0_d)">
<path d="M13.8 2.99902H30.2C32.2687 2.99902 34.2526 3.82081 35.7154 5.28359C37.1782 6.74637 38 8.73034 38 10.799V27.184C38 29.2527 37.1782 31.2367 35.7154 32.6995C34.2526 34.1622 32.2687 34.984 30.2 34.984H13.8C11.7313 34.984 9.74735 34.1622 8.28457 32.6995C6.82178 31.2367 6 29.2527 6 27.184V10.799C6 8.73034 6.82178 6.74637 8.28457 5.28359C9.74735 3.82081 11.7313 2.99902 13.8 2.99902V2.99902Z" fill="#353862"/>
</g>
<path d="M32.2669 10.7362C32.726 11.0368 33.1607 11.3732 33.5669 11.7422L37.4269 7.88419C37.0234 6.89142 36.4203 5.99216 35.6549 5.24219L30.9629 9.93219C31.3069 10.1412 31.7329 10.4022 32.2669 10.7362Z" fill="#FC4C4C"/>
<path d="M7.52399 24.5035C8.65899 24.5035 9.79802 24.4555 10.934 24.3665C11.2689 23.2606 11.6679 22.1751 12.129 21.1155C10.5279 21.2973 8.91747 21.3858 7.30603 21.3806C6.85711 21.3698 6.41412 21.2752 6 21.1016V24.3466C6.41585 24.4379 6.83941 24.4898 7.26501 24.5016L7.52399 24.5035Z" fill="#00C896"/>
<path d="M8.039 30.0805C8.697 30.0805 9.35598 30.0535 10.014 30.0115C10.0485 28.9548 10.1528 27.9015 10.326 26.8585C9.54499 26.9205 8.77 26.9525 8.026 26.9585C7.672 26.9481 7.3255 26.8539 7.01501 26.6835C6.70453 26.5131 6.43891 26.2715 6.23999 25.9785L6 26.1425V27.2035C6.00163 28.0958 6.15727 28.9812 6.46002 29.8205C6.94972 29.9796 7.45938 30.0688 7.974 30.0855L8.039 30.0805Z" fill="#FC4C4C"/>
<path d="M18.1 16.9415L20.688 13.4785L16.483 14.4915C13.7796 15.1431 11.0141 15.5022 8.23401 15.5625C7.41806 15.5884 6.62167 15.3096 6 14.7805V18.3235C6.74293 18.5835 7.52724 18.7052 8.31403 18.6825C10.0615 18.6451 11.8048 18.4985 13.534 18.2435C12.4607 20.1922 11.5895 22.2455 10.934 24.3715C10.734 25.0325 10.557 25.7005 10.403 26.3815C10.373 26.5405 10.353 26.7025 10.327 26.8625C10.1538 27.9055 10.0496 28.9588 10.015 30.0155C9.99601 30.6045 9.99101 31.1935 10.015 31.7815H7.5C8.19666 32.742 9.10368 33.5304 10.1517 34.0866C11.1998 34.6428 12.3611 34.952 13.547 34.9905C13.0049 32.3618 12.9767 29.653 13.464 27.0135C14.2814 23.3667 15.8613 19.9342 18.1 16.9415Z" fill="#FFC300"/>
<path d="M24.9206 20.9016C26.7826 19.7376 30.7446 20.6376 31.9836 21.0456L32.6976 21.2816L37.9976 17.8196V16.5506L37.5826 16.0376C36.3479 14.5111 35.0066 13.0742 33.5686 11.7376C33.1624 11.3686 32.7277 11.0322 32.2686 10.7316C31.7346 10.3976 31.3086 10.1376 30.9686 9.93158L30.8796 9.87857L31.7396 6.71259L24.7016 8.25357C23.8576 7.29057 22.1396 6.18356 18.6886 6.10156C16.8907 6.15158 15.1152 6.51399 13.4416 7.17258C10.5486 8.15158 9.20163 8.49556 7.58563 6.32956L7.50659 6.22357C6.81981 7.16174 6.35297 8.24243 6.14062 9.38556C8.91263 11.9926 11.9476 10.9736 14.4406 10.1286C15.7673 9.5839 17.1795 9.27687 18.6126 9.22156C21.5216 9.29056 22.2946 10.1976 22.4436 10.4266L22.5206 11.9266L27.3806 10.8626L27.2186 11.4806L28.3726 12.0476C28.3946 12.0586 28.9226 12.3216 30.6096 13.3786C31.8733 14.3455 33.0233 15.4526 34.0376 16.6786L32.2266 17.8606C30.4546 17.3766 26.1156 16.4756 23.2716 18.2496C22.5894 18.6798 22.0138 19.2593 21.5881 19.9444C21.1625 20.6295 20.898 21.4023 20.8146 22.2046C20.5216 24.3566 20.9936 25.9886 22.2146 27.0516C23.2523 27.8727 24.5531 28.2885 25.8746 28.2216C27.2614 28.1804 28.6362 27.9516 29.9616 27.5416C32.5941 26.8338 35.2855 26.3669 38.0026 26.1466V23.0186C35.0109 23.2439 32.0469 23.7494 29.1496 24.5286L29.0716 24.5506C25.7956 25.4716 24.6556 25.0406 24.2716 24.7026C23.7996 24.2916 23.8166 23.3486 23.9146 22.6306C23.9323 22.2831 24.0328 21.9448 24.2078 21.644C24.3828 21.3432 24.6272 21.0887 24.9206 20.9016Z" fill="#2FBFFF"/>
<path d="M32.9786 32.1777C32.9683 32.9253 33.0353 33.6719 33.1786 34.4057C34.3051 33.9379 35.3065 33.2129 36.1026 32.2887C36.1026 32.2837 36.1026 32.2747 36.1026 32.2687L32.9786 32.1777Z" fill="#2FBFFF"/>
<path d="M22.0596 34.9994H26.8216C27.5316 34.4154 27.8776 34.1634 27.8866 34.1574L26.0866 31.6084C24.6866 32.6684 23.3424 33.8003 22.0596 34.9994Z" fill="#2FBFFF"/>
<path d="M47.7428 21.7503C47.7074 22.7149 47.8794 23.6758 48.2472 24.5683C48.615 25.4607 49.1701 26.2638 49.8748 26.9233C51.4364 28.2915 53.4681 28.9999 55.5418 28.8993C57.5992 28.9956 59.6132 28.2868 61.1568 26.9233C61.8616 26.2638 62.4166 25.4607 62.7844 24.5683C63.1522 23.6758 63.3242 22.7149 63.2888 21.7503V9.9993H58.7388V21.7503C58.7388 23.6503 57.4908 24.7403 55.5148 24.7403C53.5388 24.7403 52.2908 23.6483 52.2908 21.7503V9.9993H47.7408L47.7428 21.7503ZM70.5168 28.5873V22.5303C70.5168 20.4763 71.5308 18.9683 73.4288 18.9683C74.4168 18.9683 74.9108 19.5683 74.9108 20.7363V28.5873H79.4108V19.9043C79.4108 16.5503 77.7988 14.8873 74.6018 14.8873C73.7465 14.8401 72.8948 15.0314 72.1419 15.44C71.389 15.8486 70.7644 16.4584 70.3378 17.2013H70.2858L70.3378 16.3693V15.1993H66.0188V28.5883L70.5168 28.5873ZM86.4758 13.5093V9.9993H82.0848V13.5093H86.4758ZM86.5278 28.5873V15.1983H82.0278V28.5873H86.5278ZM88.5278 21.8803C88.5131 22.7995 88.6824 23.7123 89.0259 24.565C89.3694 25.4177 89.88 26.193 90.5278 26.8453C91.2474 27.5449 92.1037 28.0884 93.043 28.4419C93.9823 28.7953 94.9845 28.951 95.9868 28.8993C98.1146 28.9281 100.172 28.1367 101.732 26.6893L100.094 23.5433C99.1052 24.5037 97.8038 25.0759 96.4278 25.1553C95.9849 25.1728 95.5431 25.0989 95.13 24.9382C94.7168 24.7775 94.3412 24.5335 94.0266 24.2212C93.7119 23.909 93.4649 23.5353 93.301 23.1234C93.1371 22.7116 93.0597 22.2704 93.0738 21.8273C93.0554 21.4022 93.1256 20.9778 93.2799 20.5813C93.4342 20.1847 93.6692 19.8245 93.9701 19.5236C94.271 19.2227 94.6312 18.9876 95.0278 18.8333C95.4244 18.679 95.8487 18.6089 96.2738 18.6273C97.4534 18.6264 98.5849 19.0941 99.4198 19.9273L101.32 16.9113C100.611 16.2357 99.7748 15.7084 98.8597 15.3601C97.9447 15.0119 96.9693 14.8498 95.9908 14.8833C94.9868 14.8359 93.9837 14.9962 93.0444 15.3541C92.1051 15.712 91.2498 16.2598 90.5318 16.9633C89.8885 17.6089 89.3804 18.3762 89.0372 19.2205C88.694 20.0648 88.5225 20.969 88.5328 21.8803H88.5278ZM109.898 14.8873C107.916 14.8275 105.989 15.5355 104.517 16.8633C103.806 17.4985 103.242 18.2811 102.865 19.1566C102.488 20.0321 102.306 20.9794 102.333 21.9323C102.304 22.8817 102.484 23.8259 102.862 24.6976C103.239 25.5692 103.804 26.3469 104.517 26.9753C106.015 28.2707 107.944 28.9573 109.924 28.8993C111.903 28.9573 113.833 28.2707 115.331 26.9753C116.043 26.3469 116.608 25.5692 116.986 24.6976C117.363 23.8259 117.544 22.8817 117.515 21.9323C117.548 20.9761 117.366 20.0246 116.984 19.1475C116.602 18.2704 116.028 17.49 115.305 16.8633C113.827 15.5316 111.89 14.8232 109.902 14.8863L109.898 14.8873ZM106.882 21.9323C106.852 21.5129 106.908 21.0919 107.047 20.695C107.186 20.2982 107.405 19.934 107.69 19.6249C107.975 19.3158 108.32 19.0682 108.704 18.8975C109.088 18.7268 109.503 18.6366 109.924 18.6323C110.344 18.6366 110.759 18.7268 111.144 18.8975C111.528 19.0682 111.873 19.3158 112.158 19.6249C112.443 19.934 112.662 20.2982 112.801 20.695C112.939 21.0919 112.996 21.5129 112.966 21.9323C112.993 22.3473 112.934 22.7633 112.793 23.1545C112.652 23.5457 112.432 23.9037 112.146 24.2061C111.861 24.5085 111.516 24.749 111.134 24.9125C110.752 25.076 110.34 25.1589 109.924 25.1563C109.508 25.1583 109.097 25.0747 108.715 24.911C108.334 24.7472 107.99 24.5066 107.705 24.2043C107.42 23.9019 107.2 23.5442 107.06 23.1533C106.919 22.7625 106.86 22.3468 106.887 21.9323H106.882ZM124.014 28.5873V23.3873C124.014 20.8653 125.288 19.3573 127.706 19.3573C128.011 19.3431 128.317 19.3693 128.616 19.4353V15.0153C128.444 14.9888 128.27 14.9715 128.096 14.9633C127.127 15.0052 126.196 15.3484 125.431 15.945C124.667 16.5415 124.108 17.3618 123.832 18.2913H123.78L123.832 17.4593V15.1973H119.521V28.5863L124.014 28.5873ZM134.829 28.5873V22.5303C134.829 20.4763 135.843 18.9683 137.741 18.9683C138.729 18.9683 139.223 19.5683 139.223 20.7363V28.5873H143.723V19.9043C143.723 16.5503 142.111 14.8873 138.914 14.8873C138.058 14.8401 137.207 15.0314 136.454 15.44C135.701 15.8486 135.076 16.4584 134.65 17.2013H134.598L134.65 16.3693V15.1993H130.336V28.5883L134.829 28.5873ZM146.276 19.3323C146.203 21.8608 147.128 24.3165 148.85 26.1693C149.706 27.0718 150.745 27.7819 151.897 28.2526C153.049 28.7233 154.287 28.9437 155.531 28.8993C156.827 28.9242 158.116 28.6859 159.318 28.1988C160.52 27.7117 161.61 26.9859 162.524 26.0653L161.484 24.7913C160.714 25.5713 159.795 26.1875 158.781 26.6031C157.767 27.0186 156.679 27.2248 155.584 27.2093C154.574 27.2462 153.568 27.0603 152.638 26.6649C151.708 26.2695 150.877 25.6742 150.203 24.9213C148.826 23.3805 148.091 21.3716 148.149 19.3063C148.081 17.2986 148.81 15.3455 150.177 13.8733C150.859 13.1521 151.688 12.5844 152.606 12.2079C153.525 11.8313 154.513 11.6546 155.506 11.6893C157.544 11.6923 159.518 12.3988 161.095 13.6893L162.057 12.3633C161.168 11.5521 160.127 10.9253 158.994 10.5192C157.861 10.113 156.659 9.93565 155.457 9.9973C154.231 9.95769 153.01 10.1755 151.873 10.6368C150.736 11.0981 149.709 11.7925 148.857 12.6753C148.003 13.5555 147.334 14.5984 146.891 15.7419C146.447 16.8855 146.238 18.1064 146.276 19.3323ZM164.214 21.9843C164.194 22.9002 164.362 23.8105 164.705 24.6597C165.049 25.5088 165.563 26.279 166.214 26.9233C166.851 27.5685 167.613 28.0767 168.453 28.4165C169.293 28.7564 170.195 28.9206 171.101 28.8993C172.007 28.9206 172.908 28.7564 173.749 28.4165C174.589 28.0767 175.351 27.5685 175.988 26.9233C176.648 26.2842 177.169 25.5156 177.518 24.6657C177.867 23.8157 178.036 22.9029 178.016 21.9843C178.036 21.0812 177.866 20.184 177.516 19.351C177.167 18.518 176.646 17.7678 175.988 17.1493C175.346 16.5126 174.583 16.0117 173.743 15.6767C172.903 15.3416 172.005 15.1793 171.101 15.1993C170.197 15.1793 169.298 15.3416 168.459 15.6767C167.619 16.0117 166.856 16.5126 166.214 17.1493C165.564 17.7728 165.05 18.5244 164.705 19.3567C164.36 20.1889 164.192 21.0837 164.211 21.9843H164.214ZM166.034 21.9843C166.016 21.3027 166.136 20.6245 166.386 19.9902C166.636 19.3558 167.012 18.7784 167.49 18.2923C167.954 17.8025 168.515 17.4152 169.137 17.1555C169.76 16.8958 170.43 16.7693 171.104 16.7843C171.778 16.7693 172.448 16.8958 173.071 17.1555C173.693 17.4152 174.254 17.8025 174.718 18.2923C175.204 18.7735 175.587 19.3495 175.842 19.9846C176.097 20.6196 176.219 21.3002 176.2 21.9843C176.222 22.6849 176.102 23.3828 175.847 24.0359C175.593 24.6889 175.208 25.2837 174.718 25.7843C174.254 26.2741 173.693 26.6613 173.071 26.9211C172.448 27.1808 171.778 27.3073 171.104 27.2923C170.43 27.3073 169.76 27.1808 169.137 26.9211C168.515 26.6613 167.954 26.2741 167.49 25.7843C167.007 25.2789 166.63 24.6828 166.379 24.0305C166.129 23.3782 166.011 22.6827 166.031 21.9843H166.034ZM182.828 28.5843V22.1843C182.805 21.488 182.919 20.794 183.165 20.1419C183.41 19.4899 183.781 18.8926 184.258 18.3843C184.705 17.8924 185.251 17.5012 185.861 17.2367C186.47 16.9722 187.129 16.8405 187.794 16.8503C190.082 16.8503 190.654 18.2503 190.654 20.7243V28.5753H192.422V20.2563C192.422 16.9023 191.174 15.1873 188.028 15.1873C186.787 15.1374 185.569 15.5341 184.596 16.3053C183.797 16.8996 183.162 17.6868 182.75 18.5933H182.698L182.798 17.5533V15.5143H181.056V28.5913L182.828 28.5843ZM198.01 28.5843V22.1843C197.987 21.488 198.101 20.794 198.347 20.1419C198.592 19.4899 198.963 18.8926 199.44 18.3843C199.887 17.8924 200.433 17.5012 201.043 17.2367C201.652 16.9722 202.311 16.8405 202.976 16.8503C205.264 16.8503 205.836 18.2503 205.836 20.7243V28.5753H207.604V20.2563C207.604 16.9023 206.356 15.1873 203.21 15.1873C201.967 15.1395 200.749 15.5394 199.776 16.3143C198.977 16.9086 198.342 17.6958 197.93 18.6023H197.876L197.976 17.5623V15.5143H196.234V28.5913L198.01 28.5843ZM210.541 22.0593C210.509 22.9685 210.665 23.8746 211.001 24.7202C211.336 25.5658 211.844 26.3327 212.491 26.9723C213.141 27.6028 213.911 28.0976 214.754 28.4279C215.597 28.7583 216.498 28.9175 217.404 28.8963C219.181 28.8842 220.895 28.2389 222.239 27.0763L221.433 25.7243C220.357 26.7375 218.932 27.2963 217.455 27.2843C216.132 27.3133 214.852 26.8179 213.893 25.9063C213.394 25.4104 213.003 24.817 212.743 24.1633C212.484 23.5095 212.362 22.8093 212.385 22.1063H222.42C222.446 21.7163 222.472 21.4303 222.472 21.2223C222.53 19.6663 222.022 18.1419 221.042 16.9323C220.552 16.3485 219.932 15.8871 219.233 15.5847C218.533 15.2823 217.773 15.1472 217.012 15.1903C216.153 15.1689 215.3 15.324 214.504 15.646C213.707 15.968 212.986 16.4501 212.384 17.0623C211.757 17.7296 211.27 18.516 210.953 19.3749C210.636 20.2338 210.495 21.1477 210.538 22.0623L210.541 22.0593ZM212.462 20.7143C212.565 19.5966 213.086 18.5589 213.92 17.8074C214.753 17.0559 215.839 16.6457 216.962 16.6583C219.042 16.6583 220.576 18.1143 220.68 20.7143H212.462ZM224.655 22.0663C224.622 22.9794 224.779 23.8894 225.115 24.7392C225.45 25.5891 225.957 26.3605 226.605 27.0053C227.256 27.6325 228.027 28.1235 228.87 28.4497C229.714 28.7759 230.614 28.9308 231.518 28.9053C232.464 28.9223 233.405 28.7467 234.281 28.3891C235.158 28.0316 235.953 27.4995 236.618 26.8253L235.812 25.4993C235.27 26.0635 234.62 26.513 233.901 26.8212C233.182 27.1293 232.408 27.2899 231.626 27.2933C230.944 27.3109 230.266 27.1911 229.632 26.9409C228.997 26.6908 228.42 26.3154 227.934 25.8373C227.451 25.3387 227.073 24.7479 226.823 24.1003C226.573 23.4526 226.455 22.7612 226.478 22.0673C226.455 21.3688 226.572 20.6727 226.822 20.0201C227.072 19.3675 227.45 18.7715 227.934 18.2673C228.405 17.7814 228.971 17.3988 229.598 17.1437C230.225 16.8885 230.898 16.7665 231.574 16.7853C233.009 16.8052 234.38 17.3834 235.396 18.3973L236.306 17.0713C235.674 16.4557 234.925 15.973 234.103 15.6514C233.282 15.3299 232.404 15.1762 231.522 15.1993C230.618 15.1768 229.718 15.3381 228.878 15.6733C228.038 16.0084 227.275 16.5106 226.635 17.1493C225.978 17.7832 225.462 18.5484 225.121 19.3948C224.78 20.2413 224.621 21.1502 224.654 22.0623L224.655 22.0663ZM239.837 23.8343C239.837 26.4603 240.955 27.6823 242.151 28.2543C242.861 28.5716 243.635 28.7228 244.413 28.6963C244.665 28.6947 244.917 28.6773 245.167 28.6443V27.0583C244.969 27.0921 244.768 27.1095 244.567 27.1103C243.553 27.1103 241.603 26.6683 241.603 23.6523V17.1013H244.903V15.6143H241.603V11.8963H239.861V15.6143H238.119V17.0963H239.835L239.837 23.8343Z" fill="#353862"/>
<defs>
<filter id="filter0_d" x="0" y="-0.000976562" width="44" height="43.985" filterUnits="userSpaceOnUse" color-interpolation-filters="sRGB">
<feFlood flood-opacity="0" result="BackgroundImageFix"/>
<feColorMatrix in="SourceAlpha" type="matrix" values="0 0 0 0 0 0 0 0 0 0 0 0 0 0 0 0 0 0 127 0" result="hardAlpha"/>
<feOffset dy="3"/>
<feGaussianBlur stdDeviation="3"/>
<feColorMatrix type="matrix" values="0 0 0 0 0 0 0 0 0 0 0 0 0 0 0 0 0 0 0.161 0"/>
<feBlend mode="normal" in2="BackgroundImageFix" result="effect1_dropShadow"/>
<feBlend mode="normal" in="SourceGraphic" in2="effect1_dropShadow" result="shape"/>
</filter>
</defs>
</svg>