<svg width="40" height="41" viewBox="0 0 40 41" fill="none" xmlns="http://www.w3.org/2000/svg">
<circle cx="19.9997" cy="20.5" r="16.6667" fill="#FF0000"/>
<path fill-rule="evenodd" clip-rule="evenodd" d="M29.4174 14.1484C29.75 14.481 29.9896 14.8949 30.1125 15.3489C30.8199 18.1964 30.6564 22.6937 30.1262 25.6511C30.0034 26.1051 29.7637 26.519 29.4311 26.8516C29.0985 27.1842 28.6846 27.4238 28.2306 27.5467C26.5685 28 19.879 28 19.879 28C19.879 28 13.1894 28 11.5273 27.5467C11.0733 27.4238 10.6594 27.1842 10.3268 26.8516C9.99423 26.519 9.75458 26.1051 9.63172 25.6511C8.92019 22.8159 9.11524 18.3159 9.61799 15.3626C9.74084 14.9086 9.9805 14.4947 10.3131 14.1621C10.6457 13.8295 11.0596 13.5899 11.5136 13.467C13.1757 13.0137 19.8652 13 19.8652 13C19.8652 13 26.5548 13 28.2169 13.4533C28.6709 13.5762 29.0848 13.8158 29.4174 14.1484ZM23.2856 20.5L17.7361 23.7143V17.2857L23.2856 20.5Z" fill="white"/>
</svg>