<svg xmlns="http://www.w3.org/2000/svg" id="google" width="85.163" height="27.901" viewBox="0 0 85.163 27.901">
    <defs>
        <style>
            .cls-1{fill:#8c98a4}
        </style>
    </defs>
    <path id="g_1_" d="M25.148 12.031h-9.965v2.923h7.086c-.354 4.119-3.809 5.934-7.042 5.934a7.758 7.758 0 0 1-7.794-7.838 7.78 7.78 0 0 1 7.794-7.927 7.6 7.6 0 0 1 5.314 2.126l2.037-2.126A10.561 10.561 0 0 0 15.095 2.2 10.916 10.916 0 0 0 4.2 12.961a10.969 10.969 0 0 0 11.072 10.85c5.8 0 10.053-3.942 10.053-9.832a8.853 8.853 0 0 0-.177-1.949z" class="cls-1" transform="translate(-4.2 -2.199)"/>
    <path id="o_2_" d="M61 19.5a6.976 6.976 0 1 0 .089 13.95 6.8 6.8 0 0 0 6.95-6.95 6.89 6.89 0 0 0-7.039-7zm.044 2.79a4.008 4.008 0 0 1 3.9 4.207 3.931 3.931 0 1 1-7.839-.044 3.924 3.924 0 0 1 3.942-4.163z" class="cls-1" transform="translate(-31.945 -11.838)"/>
    <path id="o_1_" d="M95.4 19.5a6.976 6.976 0 1 0 .089 13.95 6.8 6.8 0 0 0 6.953-6.953 6.89 6.89 0 0 0-7.042-7zm.044 2.79a4.008 4.008 0 0 1 3.9 4.207 3.931 3.931 0 1 1-7.839-.044 3.924 3.924 0 0 1 3.942-4.163z" class="cls-1" transform="translate(-51.111 -11.838)"/>
    <path id="g" d="M129.487 19.6a6.984 6.984 0 0 0-.089 13.95 4.674 4.674 0 0 0 3.853-1.683v1.373a3.514 3.514 0 0 1-3.676 3.853 3.949 3.949 0 0 1-3.587-2.48l-2.7 1.107a6.644 6.644 0 0 0 6.244 4.074c3.72 0 6.554-2.347 6.554-7.263V20h-2.923v1.2a4.565 4.565 0 0 0-3.676-1.594zm.266 2.746a3.971 3.971 0 0 1 3.72 4.252c0 2.746-1.86 4.207-3.764 4.207a3.961 3.961 0 0 1-3.853-4.163 4.032 4.032 0 0 1 3.9-4.3z" class="cls-1" transform="translate(-70.276 -11.894)"/>
    <path id="e" d="M174.21 19.5c-3.543 0-6.51 2.79-6.51 6.953a6.75 6.75 0 0 0 6.82 7 7.169 7.169 0 0 0 5.846-3.056l-2.436-1.639a3.89 3.89 0 0 1-3.41 1.9 3.576 3.576 0 0 1-3.41-2.126l9.345-3.9-.487-1.151a6.393 6.393 0 0 0-5.758-3.981zm.089 2.7a2.84 2.84 0 0 1 2.613 1.506l-6.2 2.613A3.782 3.782 0 0 1 174.3 22.2z" class="cls-1" transform="translate(-95.291 -11.838)"/>
    <path id="l" d="M157.7 24.249h3.056V3.7H157.7z" class="cls-1" transform="translate(-89.72 -3.035)"/>
</svg>
