<svg xmlns="http://www.w3.org/2000/svg" width="31.999" height="32" viewBox="0 0 31.999 32">
    <g>
        <path fill="#75768d" d="M16 0a16 16 0 1 0 16 16A16.018 16.018 0 0 0 16 0z" transform="translate(4227 5316.711) translate(-4227 -5316.712)"/>
        <path fill="#fff" d="M21.776 14.849a3.364 3.364 0 0 0-3.056 1.685V15.09h-3.394c.044.956 0 10.208 0 10.208h3.393v-5.7a2.3 2.3 0 0 1 .11-.828 1.867 1.867 0 0 1 1.741-1.242c1.228 0 1.718.936 1.718 2.309V25.3h3.394v-5.859c0-3.134-1.676-4.593-3.9-4.593zm-3.059 1.721H18.7a.313.313 0 0 0 .021-.034zm-8.664-1.48h3.393V25.3h-3.394zm1.719-4.922a1.768 1.768 0 1 0-.054 3.527h.022a1.769 1.769 0 1 0 .023-3.527z" transform="translate(4227 5316.711) translate(-4228.853 -5320.177)"/>
    </g>
</svg>
