<svg xmlns="http://www.w3.org/2000/svg" width="31.999" height="32" viewBox="0 0 31.999 32">
    <defs>
        <linearGradient id="linear-gradient" x1=".5" x2=".466" y1="1" gradientUnits="objectBoundingBox">
            <stop offset="0" stop-color="#e09b3d"/>
            <stop offset=".3" stop-color="#c74c4d"/>
            <stop offset=".6" stop-color="#c21975"/>
            <stop offset="1" stop-color="#7024c4"/>
        </linearGradient>
        <style>
            .cls-2{fill:#fff}
        </style>
    </defs>
    <g id="Group_12743" transform="translate(4227.001 5201)">
        <g id="Group_12738" transform="translate(-4357 -5982)">
            <ellipse id="Ellipse_586" cx="15.999" cy="16" fill="url(#linear-gradient)" rx="15.999" ry="16" transform="translate(129.999 781)"/>
        </g>
        <g id="instagram_1_" transform="translate(-4218.42 -5192.42)">
            <path id="Path_24883" d="M10.531 0H4.469A4.474 4.474 0 0 0 0 4.469v6.063A4.474 4.474 0 0 0 4.469 15h6.063A4.474 4.474 0 0 0 15 10.531V4.469A4.474 4.474 0 0 0 10.531 0zm2.96 10.531a2.96 2.96 0 0 1-2.96 2.96H4.469a2.96 2.96 0 0 1-2.96-2.96V4.469a2.96 2.96 0 0 1 2.96-2.96h6.063a2.96 2.96 0 0 1 2.96 2.96v6.063z" class="cls-2"/>
            <path id="Path_24884" d="M136.88 133a3.88 3.88 0 1 0 3.88 3.88 3.884 3.884 0 0 0-3.88-3.88zm0 6.25a2.371 2.371 0 1 1 2.371-2.371 2.371 2.371 0 0 1-2.371 2.371z" class="cls-2" transform="translate(-129.38 -129.38)"/>
            <circle id="Ellipse_1805" cx=".93" cy=".93" r=".93" class="cls-2" transform="translate(10.457 2.72)"/>
        </g>
    </g>
</svg>
