<svg xmlns="http://www.w3.org/2000/svg" width="232.3" height="49.987" viewBox="0 0 232.3 49.987">
    <defs>
        <filter id="Rectangle_4662-2" width="50" height="49.987" x="0" y="0" filterUnits="userSpaceOnUse">
            <feOffset dy="3"/>
            <feGaussianBlur result="blur" stdDeviation="3"/>
            <feFlood flood-opacity=".161"/>
            <feComposite in2="blur" operator="in"/>
            <feComposite in="SourceGraphic"/>
        </filter>
        <style>
            .cls-1{fill:#353862}.cls-2{fill:#fc4c4c}.cls-5{fill:#2fbfff}
        </style>
    </defs>
    <g id="Component_51_8" transform="translate(9 6)">
        <g id="Group_12497" transform="translate(-195 -447)">
            <g id="Group_10932" filter="url(#Rectangle_4662-2)" transform="translate(186 441)">
                <path id="Rectangle_4662-2-2" d="M7.8 0h16.4A7.8 7.8 0 0 1 32 7.8v16.385a7.8 7.8 0 0 1-7.8 7.8H7.8a7.8 7.8 0 0 1-7.8-7.8V7.8A7.8 7.8 0 0 1 7.8 0z" class="cls-1" transform="translate(9 6)"/>
            </g>
            <path id="Path_25572" d="M696.288 371.852a10.448 10.448 0 0 1 1.3 1.006l3.86-3.858a7.821 7.821 0 0 0-1.772-2.642l-4.692 4.69c.344.209.77.47 1.304.804z" class="cls-2" transform="translate(-475.021 82.885)"/>
            <path id="Path_25573" fill="#00c896" d="M664.524 390.089c1.135 0 2.274-.048 3.41-.137a29.775 29.775 0 0 1 1.195-3.251 41.575 41.575 0 0 1-4.823.265 3.6 3.6 0 0 1-1.306-.279v3.245a6.765 6.765 0 0 0 1.265.155z" transform="translate(-468 78.416)"/>
            <path id="Path_25574" d="M665.039 397.038c.658 0 1.317-.027 1.975-.069a24.045 24.045 0 0 1 .312-3.153c-.781.062-1.556.094-2.3.1a2.238 2.238 0 0 1-1.786-.98l-.24.164v1.061a7.755 7.755 0 0 0 .46 2.617 5.475 5.475 0 0 0 1.514.265z" class="cls-2" transform="translate(-468 77.043)"/>
            <path id="Path_25575" fill="#ffc300" d="M675.1 380.379l2.588-3.463-4.205 1.013a38.8 38.8 0 0 1-8.249 1.071 3.286 3.286 0 0 1-2.234-.782v3.543a6.444 6.444 0 0 0 2.314.359 41.925 41.925 0 0 0 5.22-.439 32.624 32.624 0 0 0-2.6 6.128c-.2.661-.377 1.329-.531 2.01-.03.159-.05.321-.076.481a24.045 24.045 0 0 0-.312 3.153c-.019.589-.024 1.178 0 1.766H664.5a7.783 7.783 0 0 0 6.047 3.209 20.8 20.8 0 0 1-.083-7.977 26.485 26.485 0 0 1 4.636-10.072z" transform="translate(-468 80.564)"/>
            <g id="Group_10933" transform="translate(195.136 450.105)">
                <path id="Path_25576" d="M681.959 382.26c1.862-1.164 5.824-.264 7.063.144l.714.236 5.3-3.462v-1.269l-.415-.513a41.517 41.517 0 0 0-4.014-4.3 10.448 10.448 0 0 0-1.3-1.006c-.534-.334-.96-.594-1.3-.8l-.089-.053.86-3.166-7.038 1.541c-.844-.963-2.562-2.07-6.013-2.152a15.507 15.507 0 0 0-5.247 1.071c-2.893.979-4.24 1.323-5.856-.843l-.079-.106a7.749 7.749 0 0 0-1.366 3.162c2.772 2.607 5.807 1.588 8.3.743a12.227 12.227 0 0 1 4.172-.907c2.909.069 3.682.976 3.831 1.205l.077 1.5 4.86-1.064-.162.618 1.154.567c.022.011.55.274 2.237 1.331a21.057 21.057 0 0 1 3.428 3.3l-1.811 1.182c-1.772-.484-6.111-1.385-8.955.389a5.327 5.327 0 0 0-2.457 3.955c-.293 2.152.179 3.784 1.4 4.847a5.454 5.454 0 0 0 3.66 1.17 15.373 15.373 0 0 0 4.087-.68 44.97 44.97 0 0 1 8.041-1.395v-3.128a47.959 47.959 0 0 0-8.853 1.51l-.078.022c-3.276.921-4.416.49-4.8.152-.472-.411-.455-1.354-.357-2.072a2.182 2.182 0 0 1 1.006-1.729z" class="cls-5" transform="translate(-663.174 -367.462)"/>
                <path id="Path_25577" d="M697.566 400.884a10.854 10.854 0 0 0 .2 2.228 7.816 7.816 0 0 0 2.924-2.117v-.02z" class="cls-5" transform="translate(-670.723 -374.81)"/>
                <path id="Path_25578" d="M683.576 403.545h4.762c.71-.584 1.056-.836 1.065-.842l-1.8-2.549a50.807 50.807 0 0 0-4.027 3.391z" class="cls-5" transform="translate(-667.652 -374.649)"/>
            </g>
        </g>
        <path id="Path_28254" d="M1.742-6.838a6.747 6.747 0 0 0 2.132 5.174A8.011 8.011 0 0 0 9.542.312a7.923 7.923 0 0 0 5.616-1.976 6.747 6.747 0 0 0 2.132-5.174V-18.59h-4.55v11.752c0 1.9-1.248 2.99-3.224 2.99S6.292-4.94 6.292-6.838V-18.59h-4.55zM24.518 0v-6.058c0-2.054 1.014-3.562 2.912-3.562.988 0 1.482.6 1.482 1.768V0h4.5v-8.684c0-3.354-1.612-5.018-4.81-5.018a4.624 4.624 0 0 0-4.264 2.314h-.052l.052-.832v-1.17H20.02V0zm15.964-15.08v-3.51h-4.394v3.51zM40.534 0v-13.39h-4.5V0zm2-6.708a6.89 6.89 0 0 0 2 4.966A7.293 7.293 0 0 0 50 .312 8.283 8.283 0 0 0 55.744-1.9l-1.638-3.144a5.736 5.736 0 0 1-3.666 1.612 3.228 3.228 0 0 1-3.354-3.328 3.07 3.07 0 0 1 3.2-3.2 4.45 4.45 0 0 1 3.146 1.3l1.9-3.016A7.359 7.359 0 0 0 50-13.7a7.309 7.309 0 0 0-5.46 2.08 6.857 6.857 0 0 0-2.004 4.912zM63.908-13.7a7.688 7.688 0 0 0-5.382 1.976 6.554 6.554 0 0 0-2.184 5.07 6.462 6.462 0 0 0 2.184 5.044A7.913 7.913 0 0 0 63.934.312a7.913 7.913 0 0 0 5.408-1.924 6.462 6.462 0 0 0 2.184-5.044 6.416 6.416 0 0 0-2.21-5.07 7.708 7.708 0 0 0-5.408-1.974zm-3.016 7.044a3.082 3.082 0 0 1 3.042-3.3 3.082 3.082 0 0 1 3.042 3.3 3.029 3.029 0 0 1-3.042 3.224 3.029 3.029 0 0 1-3.042-3.224zM78.026 0v-5.2c0-2.522 1.274-4.03 3.692-4.03a3.47 3.47 0 0 1 .91.078v-4.42a4.964 4.964 0 0 0-.52-.052 4.658 4.658 0 0 0-4.264 3.324h-.052l.052-.832v-2.258h-4.316V0zm10.816 0v-6.058c0-2.054 1.014-3.562 2.912-3.562.988 0 1.482.6 1.482 1.768V0h4.5v-8.684c0-3.354-1.612-5.018-4.81-5.018a4.624 4.624 0 0 0-4.264 2.314h-.052l.052-.832v-1.17h-4.318V0zM101.3 0l2.08-5.824h7.358L112.84 0h1.9l-6.71-18.278h-1.924L99.4 0zm5.044-14.014c.208-.572.442-1.378.7-2.392h.052l.7 2.392 2.392 6.63h-6.266zM119.132 0v-11.6h6.578V0h1.768v-11.6h5.954V0h1.768v-13.078h-7.722v-.468a3.106 3.106 0 0 1 1.092-2.73 3.253 3.253 0 0 1 1.82-.546 3.257 3.257 0 0 1 .624.052v-1.56a4.037 4.037 0 0 0-.806-.078 5.043 5.043 0 0 0-2.782.806c-1.014.6-1.716 2.028-1.716 4.03v.494h-6.578v-.468c0-2.912 1.924-3.276 2.938-3.276a3.257 3.257 0 0 1 .624.052v-1.56a4.037 4.037 0 0 0-.806-.078 4.986 4.986 0 0 0-2.782.806c-1.04.6-1.742 2.028-1.742 4.03v.494h-1.638v1.478h1.638V0zm16.146-16.068v-2.21h-1.9v2.21zm3.874 12.974c0 2.86 1.95 3.2 3.016 3.2a5.065 5.065 0 0 0 .65-.052v-1.588a1.85 1.85 0 0 1-.416.026c-.988 0-1.482-.65-1.482-1.976v-14.794h-1.768zm7.982-12.974v-2.21h-1.924v2.21zM147.056 0v-13.078h-1.768V0zm2.808-3.51a3.386 3.386 0 0 0 1.3 2.808 4.989 4.989 0 0 0 3.12 1.014 4.881 4.881 0 0 0 4.42-2.938h.052l-.078 1.092V0h1.69v-8.372c0-3.25-1.742-5.018-4.888-5.018a7.461 7.461 0 0 0-4.628 1.482l.806 1.352a6.212 6.212 0 0 1 3.718-1.248c2.158 0 3.224 1.118 3.224 3.38v.364h-.78c-5.304 0-7.956 1.508-7.956 4.55zm1.794-.156c.1-1.742 1.352-2.5 3.146-2.756a14.272 14.272 0 0 1 3.042-.234h.754v.6a5.5 5.5 0 0 1-1.118 3.38A3.377 3.377 0 0 1 154.6-1.17a2.642 2.642 0 0 1-2.942-2.496zm13-1.092c0 2.626 1.118 3.848 2.314 4.42a5.122 5.122 0 0 0 2.262.438 6.054 6.054 0 0 0 .754-.052v-1.582a3.651 3.651 0 0 1-.6.052c-1.014 0-2.964-.442-2.964-3.458v-6.552h3.3v-1.482h-3.3v-3.718h-1.742v3.718h-1.742v1.482h1.716zm6.708-1.768a6.581 6.581 0 0 0 1.95 4.914A6.829 6.829 0 0 0 178.23.312a7.468 7.468 0 0 0 4.836-1.82l-.806-1.352a5.733 5.733 0 0 1-3.978 1.56 5.011 5.011 0 0 1-3.562-1.378 5.123 5.123 0 0 1-1.508-3.8h10.036c.026-.39.052-.676.052-.884a6.429 6.429 0 0 0-1.43-4.29 4.9 4.9 0 0 0-4.03-1.742 6.273 6.273 0 0 0-4.628 1.872 6.835 6.835 0 0 0-1.846 4.996zm1.924-1.352a4.469 4.469 0 0 1 4.5-4.056c2.08 0 3.614 1.456 3.718 4.056z" class="cls-1" transform="translate(40 25.59)"/>
    </g>
</svg>
