<svg xmlns="http://www.w3.org/2000/svg" width="32.002" height="32.002" viewBox="0 0 32.002 32.002">
    <g>
        <g>
            <g>
                <path fill="#5fa8dd" d="M16 0A16 16 0 1 1 0 16 16 16 0 0 1 16 0z" transform="translate(4227 5259.068) translate(-4227 -5259.068)"/>
            </g>
            <g>
                <g>
                    <path fill="#fff" d="M-.558-.02A6.638 6.638 0 0 1-2.5.524a3.444 3.444 0 0 0 1.487-1.91 6.655 6.655 0 0 1-2.147.837 3.342 3.342 0 0 0-2.467-1.09 3.417 3.417 0 0 0-3.38 3.453 3.455 3.455 0 0 0 .087.786 9.532 9.532 0 0 1-6.97-3.608 3.511 3.511 0 0 0-.457 1.737 3.474 3.474 0 0 0 1.5 2.874 3.329 3.329 0 0 1-1.532-.431v.042A3.437 3.437 0 0 0-13.663 6.6a3.232 3.232 0 0 1-.892.122 3.276 3.276 0 0 1-.635-.061 3.387 3.387 0 0 0 3.157 2.4 6.689 6.689 0 0 1-4.2 1.479 6.768 6.768 0 0 1-.807-.047 9.437 9.437 0 0 0 5.182 1.551 9.665 9.665 0 0 0 9.62-9.826c0-.15 0-.3-.01-.447A6.963 6.963 0 0 0-.558-.02" transform="translate(4227 5259.068) translate(-4227 -5259.068) translate(7.823 9.191) translate(17.037 1.639)"/>
                </g>
            </g>
        </g>
    </g>
</svg>
