<svg width="16" height="16" viewBox="0 0 16 16" fill="none" xmlns="http://www.w3.org/2000/svg">
<path fill-rule="evenodd" clip-rule="evenodd" d="M3.5 5.66699C2.14533 5.66699 1 6.93033 1 8.16699C1 9.40366 2.14533 10.667 3.5 10.667C4.178 10.667 4.84267 10.3623 5.54133 9.83166C6.13467 9.37966 6.71333 8.79566 7.31133 8.16699C6.71333 7.53833 6.13467 6.95366 5.54133 6.50233C4.84267 5.97166 4.178 5.66699 3.5 5.66699ZM8 7.44033C7.40867 6.81833 6.79133 6.19699 6.14667 5.70699C5.36533 5.11166 4.48867 4.66699 3.5 4.66699C1.562 4.66699 0 6.41033 0 8.16699C0 9.92366 1.562 11.667 3.5 11.667C4.48867 11.667 5.36533 11.2217 6.14667 10.627C6.79133 10.137 7.40867 9.51566 8 8.89366C8.59133 9.51566 9.20867 10.137 9.85333 10.627C10.6347 11.2217 11.5113 11.667 12.5 11.667C14.438 11.667 16 9.92366 16 8.16699C16 6.41033 14.438 4.66699 12.5 4.66699C11.5113 4.66699 10.6347 5.11233 9.85333 5.70699C9.20867 6.19699 8.59133 6.81833 8 7.44033ZM8.68867 8.16699C9.28667 8.79566 9.86533 9.38033 10.4587 9.83166C11.1573 10.3623 11.822 10.667 12.5 10.667C13.8547 10.667 15 9.40366 15 8.16699C15 6.93033 13.8547 5.66699 12.5 5.66699C11.822 5.66699 11.1573 5.97166 10.4587 6.50233C9.86533 6.95433 9.28667 7.53833 8.68867 8.16699Z" fill="#0E1445"/>
</svg>