<svg width="24" height="24" viewBox="0 0 24 24" fill="none" xmlns="http://www.w3.org/2000/svg">
<circle cx="12.0001" cy="12" r="10" fill="#BD081C"/>
<path fill-rule="evenodd" clip-rule="evenodd" d="M12.4263 6C9.1513 6 7.50012 8.34795 7.50012 10.3059C7.50012 11.4913 7.94901 12.5462 8.91167 12.9389C9.06955 13.0034 9.21093 12.9411 9.25668 12.7664C9.28856 12.6452 9.36394 12.34 9.39731 12.2128C9.44344 12.04 9.42544 11.9796 9.29793 11.8288C9.02042 11.5014 8.84304 11.0777 8.84304 10.4773C8.84304 8.73497 10.1466 7.17567 12.2369 7.17567C14.088 7.17567 15.105 8.30707 15.105 9.81725C15.105 11.8048 14.2252 13.4823 12.9198 13.4823C12.1987 13.4823 11.659 12.8856 11.8319 12.1543C12.0389 11.2813 12.4405 10.3385 12.4405 9.70851C12.4405 9.14449 12.1375 8.67384 11.5109 8.67384C10.7736 8.67384 10.1815 9.43624 10.1815 10.4578C10.1815 11.1084 10.4012 11.5487 10.4012 11.5487C10.4012 11.5487 9.6467 14.7449 9.51469 15.3048C9.25143 16.4197 9.47532 17.7863 9.49407 17.9243C9.50532 18.006 9.61032 18.0255 9.65795 17.9633C9.72582 17.8748 10.6037 16.7906 10.9022 15.7076C10.9866 15.4012 11.3871 13.813 11.3871 13.813C11.6264 14.2698 12.3265 14.6722 13.0709 14.6722C15.2869 14.6722 16.7899 12.652 16.7899 9.94777C16.7899 7.90394 15.0585 6 12.4263 6Z" fill="white"/>
</svg>
