<svg width="24" height="24" viewBox="0 0 24 24" fill="none" xmlns="http://www.w3.org/2000/svg">
<circle cx="12.0001" cy="12" r="10" fill="#010101"/>
<path d="M8.22535 13.8963C8.30349 13.2494 8.56883 12.8872 9.06884 12.5158C9.78427 12.0129 10.6779 12.2974 10.6779 12.2974V10.6098C10.8952 10.6043 11.1126 10.6172 11.3274 10.6483V12.8201C11.3274 12.8201 10.434 12.5356 9.71861 13.0387C9.21887 13.4098 8.95299 13.7723 8.87513 14.4192C8.87269 14.7705 8.93861 15.2297 9.2422 15.6268C9.16714 15.5883 9.09064 15.5445 9.01268 15.4952C8.34392 15.0462 8.2221 14.3724 8.22535 13.8963ZM15.0175 7.48949C14.5253 6.95019 14.3392 6.40569 14.2719 6.02319H14.891C14.891 6.02319 14.7676 7.02612 15.6672 8.01241L15.6797 8.02567C15.4372 7.87315 15.2149 7.69312 15.0175 7.48949ZM17.9999 9.01846V11.1465C17.9999 11.1465 17.2099 11.1156 16.6252 10.9668C15.8089 10.7588 15.2841 10.4398 15.2841 10.4398C15.2841 10.4398 14.9217 10.2122 14.8924 10.1964V14.5909C14.8924 14.8355 14.8254 15.4466 14.6211 15.9563C14.3544 16.623 13.9428 17.0606 13.8671 17.1501C13.8671 17.1501 13.3666 17.7416 12.4835 18.14C11.6875 18.4993 10.9886 18.4902 10.7797 18.4993C10.7797 18.4993 9.57157 18.5472 8.48445 17.8407C8.24937 17.685 8.02993 17.5086 7.82898 17.3139L7.83441 17.3178C8.92179 18.0243 10.1296 17.9764 10.1296 17.9764C10.3388 17.9673 11.0377 17.9764 11.8334 17.6171C12.7157 17.2187 13.2171 16.6271 13.2171 16.6271C13.292 16.5377 13.7054 16.1001 13.971 15.4331C14.1748 14.9237 14.2423 14.3124 14.2423 14.0677V9.67373C14.2716 9.68985 14.6338 9.91737 14.6338 9.91737C14.6338 9.91737 15.1588 10.2367 15.9752 10.4444C16.5601 10.5932 17.3499 10.6241 17.3499 10.6241V8.95657C17.6201 9.01716 17.8504 9.03354 17.9999 9.01846Z" fill="#EE1D52"/>
<path d="M17.3502 8.95657V10.6236C17.3502 10.6236 16.5604 10.5927 15.9755 10.4439C15.1591 10.2359 14.6342 9.91685 14.6342 9.91685C14.6342 9.91685 14.272 9.68933 14.2427 9.67321V14.0682C14.2427 14.3129 14.1757 14.9242 13.9714 15.4336C13.7047 16.1006 13.2931 16.5382 13.2174 16.6277C13.2174 16.6277 12.7166 17.2192 11.8338 17.6176C11.038 17.9769 10.3391 17.9678 10.13 17.9769C10.13 17.9769 8.92212 18.0248 7.83473 17.3183L7.82931 17.3144C7.7145 17.2032 7.60644 17.0858 7.50564 16.9628C7.15864 16.5398 6.94594 16.0395 6.89249 15.8967C6.8924 15.8961 6.8924 15.8955 6.89249 15.8949C6.80649 15.6468 6.6258 15.0511 6.65049 14.4741C6.69417 13.4561 7.05229 12.8312 7.14698 12.6747C7.39774 12.2478 7.7239 11.8659 8.11092 11.5459C8.45245 11.2698 8.83955 11.0501 9.25637 10.8959C9.70696 10.7147 10.1895 10.6177 10.678 10.6098V12.2974C10.678 12.2974 9.78432 12.014 9.06917 12.5158C8.56915 12.8872 8.30382 13.2494 8.22568 13.8963C8.22243 14.3724 8.34424 15.0462 9.01246 15.4955C9.09042 15.5449 9.16693 15.5888 9.24199 15.6271C9.35873 15.7788 9.50081 15.911 9.66251 16.0184C10.3153 16.4316 10.8622 16.4605 11.5616 16.1921C12.028 16.0127 12.3791 15.6083 12.5419 15.1603C12.6441 14.8805 12.6428 14.5989 12.6428 14.3077V6.02319H14.2706C14.3379 6.40569 14.524 6.95019 15.0162 7.48949C15.2136 7.69312 15.4359 7.87315 15.6784 8.02567C15.75 8.09978 16.1163 8.46616 16.5865 8.69108C16.8296 8.80734 17.0858 8.89643 17.3502 8.95657Z" fill="white"/>
<path d="M6.24463 15.3784V15.3797L6.28502 15.4892C6.28038 15.4764 6.26537 15.4377 6.24463 15.3784Z" fill="#69C9D0"/>
<path d="M9.25641 10.8958C8.8396 11.0501 8.45249 11.2698 8.11096 11.5459C7.72381 11.8666 7.39774 12.2493 7.14729 12.677C7.0526 12.833 6.69448 13.4584 6.6508 14.4764C6.62611 15.0534 6.8068 15.6491 6.89281 15.8972C6.89271 15.8978 6.89271 15.8984 6.89281 15.899C6.94707 16.0405 7.15896 16.5408 7.50595 16.9651C7.60675 17.0882 7.71482 17.2055 7.82962 17.3167C7.46178 17.0729 7.13373 16.7781 6.85618 16.442C6.51217 16.0225 6.30001 15.5274 6.24466 15.3813C6.2446 15.3803 6.2446 15.3792 6.24466 15.3782V15.3764C6.15839 15.1286 5.97716 14.5326 6.00239 13.9548C6.04607 12.9368 6.40419 12.3119 6.49887 12.1554C6.74925 11.7277 7.07533 11.3449 7.46255 11.0243C7.804 10.7481 8.19113 10.5284 8.60799 10.3742C8.86801 10.2708 9.13888 10.1945 9.41593 10.1467C9.83346 10.0768 10.2599 10.0708 10.6794 10.1287V10.6098C10.1904 10.6175 9.70742 10.7145 9.25641 10.8958Z" fill="#69C9D0"/>
<path d="M14.272 6.02318H12.6442V14.3079C12.6442 14.5992 12.6442 14.88 12.5433 15.1606C12.3789 15.6083 12.0291 16.0127 11.563 16.1921C10.8634 16.4615 10.3164 16.4316 9.66392 16.0184C9.50194 15.9115 9.35949 15.7797 9.24231 15.6284C9.79821 15.9126 10.2958 15.9076 10.9122 15.6705C11.378 15.4911 11.7283 15.0867 11.8921 14.6387C11.9947 14.3589 11.9933 14.0773 11.9933 13.7863V5.5H14.2411C14.2411 5.5 14.2159 5.70594 14.272 6.02318ZM17.3502 8.49552V8.95655C17.0863 8.89631 16.8306 8.80723 16.5879 8.69106C16.1177 8.46614 15.7514 8.09976 15.6798 8.02565C15.7629 8.07795 15.8492 8.12553 15.9381 8.16815C16.5097 8.4417 17.0727 8.52335 17.3502 8.49552Z" fill="#69C9D0"/>
</svg>
