<svg class="social-icon-sm" width="24" height="24" viewBox="0 0 24 24" fill="none"
                            xmlns="http://www.w3.org/2000/svg">
                            <circle cx="12" cy="12" r="10" fill="#FF0000" />
                            <path fill-rule="evenodd" clip-rule="evenodd"
                              d="M17.6502 8.18903C17.8498 8.38858 17.9936 8.63693 18.0673 8.90934C18.4917 10.6179 18.3937 13.3162 18.0755 15.0907C18.0018 15.3631 17.858 15.6114 17.6585 15.811C17.4589 16.0105 17.2106 16.1543 16.9382 16.228C15.9409 16.5 11.9272 16.5 11.9272 16.5C11.9272 16.5 7.91345 16.5 6.9162 16.228C6.64379 16.1543 6.39545 16.0105 6.19589 15.811C5.99635 15.6114 5.85255 15.3631 5.77884 15.0907C5.35192 13.3896 5.46895 10.6896 5.7706 8.91758C5.84431 8.64517 5.9881 8.39682 6.18765 8.19727C6.3872 7.99772 6.63555 7.85393 6.90796 7.78022C7.90521 7.50824 11.9189 7.5 11.9189 7.5C11.9189 7.5 15.9327 7.5 16.9299 7.77198C17.2023 7.84569 17.4507 7.98949 17.6502 8.18903ZM13.9711 12L10.6415 13.9286V10.0714L13.9711 12Z"
                              fill="white" />
                          </svg>