<svg width="40" height="41" viewBox="0 0 40 41" fill="none" xmlns="http://www.w3.org/2000/svg">
<circle cx="19.9997" cy="20.5" r="16.6667" fill="#C13584"/>
<path d="M20 12.3018C22.6701 12.3018 22.9864 12.312 24.0409 12.3601C25.0158 12.4046 25.5453 12.5675 25.8977 12.7044C26.3645 12.8858 26.6976 13.1025 27.0475 13.4524C27.3975 13.8024 27.6142 14.1355 27.7956 14.6023C27.9325 14.9546 28.0954 15.4841 28.1399 16.4591C28.188 17.5136 28.1982 17.8299 28.1982 20.4999C28.1982 23.1701 28.188 23.4864 28.1399 24.5408C28.0954 25.5158 27.9325 26.0453 27.7956 26.3977C27.6142 26.8644 27.3975 27.1976 27.0476 27.5475C26.6976 27.8974 26.3645 28.1141 25.8977 28.2955C25.5453 28.4325 25.0158 28.5954 24.0409 28.6398C22.9866 28.6879 22.6703 28.6981 20 28.6981C17.3297 28.6981 17.0135 28.6879 15.9591 28.6398C14.9841 28.5954 14.4547 28.4325 14.1023 28.2955C13.6355 28.1141 13.3024 27.8974 12.9525 27.5475C12.6026 27.1976 12.3858 26.8644 12.2044 26.3977C12.0675 26.0453 11.9046 25.5158 11.8601 24.5408C11.812 23.4864 11.8018 23.1701 11.8018 20.4999C11.8018 17.8299 11.812 17.5136 11.8601 16.4591C11.9046 15.4841 12.0675 14.9546 12.2044 14.6023C12.3858 14.1355 12.6025 13.8024 12.9525 13.4525C13.3024 13.1025 13.6355 12.8858 14.1023 12.7044C14.4547 12.5675 14.9841 12.4046 15.9591 12.3601C17.0136 12.312 17.3299 12.3018 20 12.3018ZM20 10.5C17.2842 10.5 16.9436 10.5115 15.877 10.5602C14.8126 10.6087 14.0857 10.7778 13.4496 11.025C12.792 11.2805 12.2344 11.6225 11.6784 12.1784C11.1225 12.7343 10.7805 13.292 10.525 13.9496C10.2778 14.5857 10.1087 15.3126 10.0602 16.377C10.0115 17.4436 10 17.7841 10 20.4999C10 23.2158 10.0115 23.5563 10.0602 24.6229C10.1087 25.6873 10.2778 26.4143 10.525 27.0503C10.7805 27.7079 11.1225 28.2656 11.6784 28.8216C12.2344 29.3775 12.792 29.7194 13.4496 29.9749C14.0857 30.2221 14.8126 30.3912 15.877 30.4398C16.9436 30.4884 17.2842 30.4999 20 30.4999C22.7158 30.4999 23.0564 30.4884 24.123 30.4398C25.1874 30.3912 25.9143 30.2221 26.5504 29.9749C27.208 29.7194 27.7656 29.3775 28.3216 28.8216C28.8775 28.2656 29.2195 27.7079 29.475 27.0503C29.7222 26.4143 29.8913 25.6873 29.9398 24.6229C29.9885 23.5563 30 23.2158 30 20.4999C30 17.7841 29.9885 17.4436 29.9398 16.377C29.8913 15.3126 29.7222 14.5857 29.475 13.9496C29.2195 13.292 28.8775 12.7343 28.3216 12.1784C27.7656 11.6225 27.208 11.2805 26.5504 11.025C25.9143 10.7778 25.1874 10.6087 24.123 10.5602C23.0564 10.5115 22.7158 10.5 20 10.5Z" fill="white"/>
<path d="M20.0043 15.3695C17.1682 15.3695 14.8691 17.6686 14.8691 20.5046C14.8691 23.3407 17.1682 25.6397 20.0043 25.6397C22.8403 25.6397 25.1394 23.3407 25.1394 20.5046C25.1394 17.6686 22.8403 15.3695 20.0043 15.3695ZM20.0043 23.8379C18.1633 23.8379 16.6709 22.3456 16.6709 20.5046C16.6709 18.6637 18.1633 17.1713 20.0043 17.1713C21.8452 17.1713 23.3376 18.6637 23.3376 20.5046C23.3376 22.3456 21.8452 23.8379 20.0043 23.8379Z" fill="white"/>
<path d="M26.5426 15.1635C26.5426 15.8262 26.0053 16.3635 25.3426 16.3635C24.6799 16.3635 24.1426 15.8262 24.1426 15.1635C24.1426 14.5008 24.6799 13.9635 25.3426 13.9635C26.0053 13.9635 26.5426 14.5008 26.5426 15.1635Z" fill="white"/>
</svg>