<svg width="40" height="41" viewBox="0 0 40 41" fill="none" xmlns="http://www.w3.org/2000/svg">
<circle cx="19.9997" cy="20.5" r="16.6667" fill="#010101"/>
<path d="M13.7085 23.6606C13.8387 22.5823 14.2809 21.9786 15.1143 21.3598C16.3067 20.5216 17.7961 20.9957 17.7961 20.9957V18.1831C18.1582 18.1738 18.5205 18.1953 18.8786 18.2472V21.8668C18.8786 21.8668 17.3896 21.3927 16.1972 22.2313C15.3643 22.8497 14.9212 23.4539 14.7914 24.5321C14.7874 25.1176 14.8972 25.8829 15.4032 26.5447C15.2781 26.4806 15.1506 26.4075 15.0207 26.3254C13.9061 25.577 13.7031 24.4541 13.7085 23.6606ZM25.0286 12.9825C24.2084 12.0837 23.8982 11.1762 23.7861 10.5387H24.8179C24.8179 10.5387 24.6122 12.2102 26.1116 13.8541L26.1324 13.8762C25.7283 13.622 25.3577 13.3219 25.0286 12.9825ZM29.9994 15.5308V19.0776C29.9994 19.0776 28.6827 19.026 27.7082 18.7781C26.3476 18.4314 25.4731 17.8997 25.4731 17.8997C25.4731 17.8997 24.869 17.5204 24.8202 17.494V24.8181C24.8202 25.2259 24.7085 26.2444 24.368 27.0938C23.9235 28.205 23.2376 28.9344 23.1114 29.0835C23.1114 29.0835 22.2772 30.0694 20.8053 30.7333C19.4787 31.3323 18.3139 31.3171 17.9657 31.3323C17.9657 31.3323 15.9522 31.412 14.1403 30.2345C13.7485 29.975 13.3828 29.681 13.0479 29.3565L13.0569 29.363C14.8692 30.5405 16.8823 30.4607 16.8823 30.4607C17.2309 30.4456 18.3957 30.4607 19.7219 29.8618C21.1924 29.1979 22.028 28.2119 22.028 28.2119C22.1528 28.0628 22.8419 27.3335 23.2846 26.2219C23.6242 25.3729 23.7368 24.354 23.7368 23.9462V16.6229C23.7856 16.6498 24.3893 17.029 24.3893 17.029C24.3893 17.029 25.2642 17.5612 26.6248 17.9075C27.5997 18.1553 28.916 18.2069 28.916 18.2069V15.4277C29.3663 15.5286 29.7502 15.5559 29.9994 15.5308Z" fill="#EE1D52"/>
<path d="M28.9167 15.4277V18.2061C28.9167 18.2061 27.6005 18.1545 26.6256 17.9066C25.265 17.5599 24.39 17.0281 24.39 17.0281C24.39 17.0281 23.7864 16.6489 23.7375 16.6221V23.947C23.7375 24.3549 23.6258 25.3737 23.2854 26.2227C22.8409 27.3343 22.1549 28.0637 22.0288 28.2128C22.0288 28.2128 21.1941 29.1987 19.7227 29.8627C18.3965 30.4616 17.2317 30.4464 16.883 30.4616C16.883 30.4616 14.87 30.5413 13.0576 29.3639L13.0486 29.3574C12.8573 29.1721 12.6771 28.9764 12.5092 28.7714C11.9308 28.0663 11.5763 27.2325 11.4872 26.9946C11.4871 26.9936 11.4871 26.9925 11.4872 26.9915C11.3439 26.5781 11.0428 25.5852 11.0839 24.6235C11.1567 22.9269 11.7536 21.8855 11.9114 21.6246C12.3293 20.9131 12.8729 20.2766 13.518 19.7433C14.0872 19.2831 14.7323 18.9169 15.427 18.6598C16.178 18.3579 16.9822 18.1961 17.7964 18.1831V20.9957C17.7964 20.9957 16.307 20.5233 15.115 21.3598C14.2817 21.9786 13.8395 22.5823 13.7092 23.6606C13.7038 24.4541 13.9068 25.577 15.0205 26.3259C15.1505 26.4082 15.278 26.4813 15.4031 26.5452C15.5976 26.7981 15.8344 27.0184 16.1039 27.1974C17.1919 27.886 18.1034 27.9341 19.2692 27.4869C20.0464 27.1879 20.6316 26.5139 20.9029 25.7672C21.0733 25.3009 21.0711 24.8316 21.0711 24.3462V10.5387H23.7841C23.8962 11.1762 24.2064 12.0837 25.0267 12.9825C25.3557 13.3219 25.7263 13.622 26.1304 13.8762C26.2498 13.9997 26.8602 14.6103 27.6439 14.9852C28.0491 15.1789 28.4761 15.3274 28.9167 15.4277Z" fill="white"/>
<path d="M10.4072 26.1307V26.1329L10.4745 26.3154C10.4668 26.2941 10.4418 26.2295 10.4072 26.1307Z" fill="#69C9D0"/>
<path d="M15.4264 18.6598C14.7317 18.9169 14.0865 19.283 13.5173 19.7432C12.872 20.2777 12.3286 20.9156 11.9112 21.6284C11.7534 21.8885 11.1565 22.9307 11.0837 24.6274C11.0425 25.5891 11.3437 26.582 11.487 26.9954C11.4869 26.9964 11.4869 26.9974 11.487 26.9985C11.5775 27.2342 11.9306 28.068 12.5089 28.7753C12.6769 28.9803 12.857 29.176 13.0484 29.3612C12.4353 28.9549 11.8886 28.4636 11.426 27.9034C10.8526 27.2043 10.499 26.3792 10.4068 26.1356C10.4067 26.1339 10.4067 26.1321 10.4068 26.1304V26.1274C10.263 25.7143 9.96095 24.721 10.003 23.7581C10.0758 22.0614 10.6727 21.02 10.8305 20.7591C11.2478 20.0462 11.7912 19.4083 12.4366 18.8739C13.0057 18.4135 13.6509 18.0473 14.3457 17.7904C14.779 17.6181 15.2305 17.491 15.6922 17.4112C16.3881 17.2948 17.0988 17.2847 17.798 17.3813V18.1831C16.983 18.1958 16.1781 18.3577 15.4264 18.6598Z" fill="#69C9D0"/>
<path d="M23.7862 10.5387H21.0731V24.3466C21.0731 24.832 21.0731 25.3001 20.9049 25.7677C20.6309 26.514 20.048 27.1879 19.2712 27.4869C18.1051 27.9359 17.1935 27.886 16.106 27.1974C15.836 27.0193 15.5986 26.7996 15.4033 26.5473C16.3298 27.021 17.1591 27.0128 18.1864 26.6175C18.9628 26.3185 19.5466 25.6446 19.8197 24.8979C19.9906 24.4316 19.9884 23.9622 19.9884 23.4773V9.66675H23.7346C23.7346 9.66675 23.6926 10.01 23.7862 10.5387ZM28.9165 14.6593V15.4277C28.4767 15.3273 28.0504 15.1788 27.6459 14.9852C26.8623 14.6103 26.2519 13.9997 26.1325 13.8762C26.271 13.9633 26.4148 14.0426 26.563 14.1137C27.5157 14.5696 28.454 14.7057 28.9165 14.6593Z" fill="#69C9D0"/>
</svg>