<svg width="40" height="41" viewBox="0 0 40 41" fill="none" xmlns="http://www.w3.org/2000/svg">
<circle cx="19.9997" cy="20.5" r="16.6667" fill="#1DA1F2"/>
<path fill-rule="evenodd" clip-rule="evenodd" d="M30 14.0905C29.2647 14.4171 28.4734 14.6371 27.6435 14.7365C28.4908 14.2285 29.1414 13.4245 29.4474 12.4666C28.6554 12.9372 27.7761 13.2779 26.8422 13.4625C26.0936 12.6653 25.0263 12.1666 23.8471 12.1666C21.5812 12.1666 19.744 14.0038 19.744 16.2697C19.744 16.591 19.7807 16.9043 19.8507 17.205C16.4402 17.0343 13.4171 15.4004 11.3932 12.9179C11.0399 13.5239 10.8379 14.2285 10.8379 14.9804C10.8379 16.4037 11.5612 17.6596 12.6632 18.3955C11.9899 18.3742 11.3579 18.1896 10.8039 17.8822V17.9336C10.8039 19.9221 12.2192 21.58 14.0951 21.958C13.7511 22.0513 13.3884 22.102 13.0145 22.102C12.7498 22.102 12.4925 22.076 12.2418 22.028C12.7638 23.6579 14.2797 24.8445 16.0749 24.8778C14.671 25.9777 12.9018 26.6343 10.9793 26.6343C10.6473 26.6343 10.3206 26.615 10 26.5763C11.8159 27.7402 13.9724 28.4202 16.2896 28.4202C23.8364 28.4202 27.9635 22.168 27.9635 16.7463C27.9635 16.5683 27.9601 16.391 27.9515 16.2157C28.7541 15.6357 29.45 14.9131 30 14.0905Z" fill="white"/>
</svg>
