<svg width="246" height="44" viewBox="0 0 246 44" fill="none" xmlns="http://www.w3.org/2000/svg">
<g filter="url(#filter0_d_1_704)">
<path d="M13.8 3H30.2C32.2687 3 34.2526 3.82178 35.7154 5.28457C37.1782 6.74735 38 8.73131 38 10.8V27.185C38 29.2537 37.1782 31.2376 35.7154 32.7004C34.2526 34.1632 32.2687 34.985 30.2 34.985H13.8C11.7313 34.985 9.74735 34.1632 8.28457 32.7004C6.82178 31.2376 6 29.2537 6 27.185V10.8C6 8.73131 6.82178 6.74735 8.28457 5.28457C9.74735 3.82178 11.7313 3 13.8 3V3Z" fill="#0E1445"/>
</g>
<path d="M32.2669 10.7372C32.726 11.0378 33.1607 11.3742 33.5669 11.7432L37.4269 7.88516C37.0234 6.8924 36.4203 5.99313 35.6549 5.24316L30.9629 9.93317C31.3069 10.1422 31.7329 10.4032 32.2669 10.7372Z" fill="#FC4C4C"/>
<path d="M7.52399 24.505C8.65899 24.505 9.79802 24.457 10.934 24.368C11.2689 23.2621 11.6679 22.1766 12.129 21.117C10.5279 21.2987 8.91747 21.3872 7.30603 21.382C6.85711 21.3713 6.41412 21.2767 6 21.103V24.348C6.41585 24.4394 6.83941 24.4913 7.26501 24.503L7.52399 24.505Z" fill="#00C896"/>
<path d="M8.039 30.081C8.697 30.081 9.35598 30.054 10.014 30.012C10.0485 28.9553 10.1528 27.902 10.326 26.859C9.54499 26.921 8.77 26.953 8.026 26.959C7.672 26.9486 7.3255 26.8544 7.01501 26.684C6.70453 26.5136 6.43891 26.272 6.23999 25.979L6 26.143V27.204C6.00163 28.0963 6.15727 28.9816 6.46002 29.821C6.94972 29.9801 7.45938 30.0693 7.974 30.086L8.039 30.081Z" fill="#FC4C4C"/>
<path d="M18.1 16.943L20.688 13.48L16.483 14.493C13.7796 15.1445 11.0141 15.5036 8.23401 15.564C7.41806 15.5899 6.62167 15.3111 6 14.782V18.325C6.74293 18.585 7.52724 18.7067 8.31403 18.684C10.0615 18.6466 11.8048 18.5 13.534 18.245C12.4607 20.1937 11.5895 22.247 10.934 24.373C10.734 25.034 10.557 25.702 10.403 26.383C10.373 26.542 10.353 26.704 10.327 26.864C10.1538 27.907 10.0496 28.9603 10.015 30.017C9.99601 30.606 9.99101 31.195 10.015 31.783H7.5C8.19666 32.7434 9.10368 33.5319 10.1517 34.088C11.1998 34.6442 12.3611 34.9534 13.547 34.992C13.0049 32.3633 12.9767 29.6544 13.464 27.015C14.2814 23.3682 15.8613 19.9356 18.1 16.943Z" fill="#FFC300"/>
<path d="M24.9211 20.903C26.7831 19.739 30.7451 20.639 31.9841 21.047L32.6981 21.2831L37.9981 17.821V16.552L37.5831 16.039C36.3484 14.5126 35.0071 13.0757 33.5691 11.739C33.1629 11.3701 32.7282 11.0337 32.2691 10.733C31.7351 10.399 31.3091 10.139 30.9691 9.93304L30.8801 9.88004L31.7401 6.71405L24.7021 8.25504C23.8581 7.29204 22.1401 6.18503 18.6891 6.10303C16.8912 6.15304 15.1157 6.51546 13.4421 7.17404C10.5491 8.15304 9.20212 8.49702 7.58612 6.33102L7.50708 6.22504C6.82029 7.16321 6.35346 8.24389 6.14111 9.38702C8.91311 11.994 11.9481 10.975 14.4411 10.13C15.7678 9.58536 17.18 9.27834 18.6131 9.22302C21.5221 9.29202 22.2951 10.199 22.4441 10.428L22.5211 11.928L27.3811 10.864L27.2191 11.482L28.3731 12.049C28.3951 12.06 28.9231 12.323 30.6101 13.38C31.8738 14.347 33.0238 15.454 34.0381 16.68L32.2271 17.862C30.4551 17.378 26.1161 16.477 23.2721 18.251C22.5899 18.6813 22.0142 19.2608 21.5886 19.9459C21.163 20.631 20.8985 21.4038 20.8151 22.206C20.5221 24.358 20.9941 25.99 22.2151 27.053C23.2528 27.8741 24.5536 28.2899 25.8751 28.223C27.2619 28.1818 28.6367 27.9531 29.9621 27.543C32.5946 26.8353 35.286 26.3684 38.0031 26.148V23.0201C35.0114 23.2454 32.0474 23.7509 29.1501 24.53L29.0721 24.552C25.7961 25.473 24.6561 25.042 24.2721 24.704C23.8001 24.293 23.8171 23.35 23.9151 22.632C23.9328 22.2845 24.0333 21.9463 24.2083 21.6455C24.3833 21.3447 24.6277 21.0901 24.9211 20.903Z" fill="#2FBFFF"/>
<path d="M32.979 32.1792C32.9688 32.9268 33.0358 33.6734 33.1791 34.4072C34.3056 33.9394 35.3069 33.2144 36.1031 32.2902C36.1031 32.2852 36.1031 32.2762 36.1031 32.2702L32.979 32.1792Z" fill="#2FBFFF"/>
<path d="M22.0601 35.0009H26.8221C27.5321 34.4169 27.8781 34.1649 27.8871 34.1589L26.0871 31.6099C24.6871 32.6698 23.3429 33.8017 22.0601 35.0009Z" fill="#2FBFFF"/>
<path d="M47.7428 21.7508C47.7074 22.7154 47.8794 23.6763 48.2472 24.5687C48.615 25.4612 49.1701 26.2642 49.8748 26.9238C51.4364 28.292 53.4681 29.0004 55.5418 28.8998C57.5992 28.9961 59.6132 28.2873 61.1568 26.9238C61.8616 26.2642 62.4166 25.4612 62.7844 24.5687C63.1522 23.6763 63.3242 22.7154 63.2888 21.7508V9.99979H58.7388V21.7508C58.7388 23.6508 57.4908 24.7408 55.5148 24.7408C53.5388 24.7408 52.2908 23.6488 52.2908 21.7508V9.99979H47.7408L47.7428 21.7508ZM70.5168 28.5878V22.5308C70.5168 20.4768 71.5308 18.9688 73.4288 18.9688C74.4168 18.9688 74.9108 19.5688 74.9108 20.7368V28.5878H79.4108V19.9048C79.4108 16.5508 77.7988 14.8878 74.6018 14.8878C73.7465 14.8406 72.8948 15.0319 72.1419 15.4405C71.389 15.8491 70.7644 16.4589 70.3378 17.2018H70.2858L70.3378 16.3698V15.1998H66.0188V28.5888L70.5168 28.5878ZM86.4758 13.5098V9.99979H82.0848V13.5098H86.4758ZM86.5278 28.5878V15.1988H82.0278V28.5878H86.5278ZM88.5278 21.8808C88.5131 22.7999 88.6824 23.7128 89.0259 24.5655C89.3694 25.4182 89.88 26.1935 90.5278 26.8458C91.2474 27.5454 92.1037 28.0889 93.043 28.4424C93.9823 28.7958 94.9845 28.9515 95.9868 28.8998C98.1146 28.9285 100.172 28.1372 101.732 26.6898L100.094 23.5438C99.1052 24.5042 97.8038 25.0764 96.4278 25.1558C95.9849 25.1733 95.5431 25.0994 95.13 24.9387C94.7168 24.778 94.3412 24.5339 94.0266 24.2217C93.7119 23.9095 93.4649 23.5358 93.301 23.1239C93.1371 22.7121 93.0597 22.2709 93.0738 21.8278C93.0554 21.4026 93.1256 20.9783 93.2799 20.5817C93.4342 20.1852 93.6692 19.825 93.9701 19.5241C94.271 19.2232 94.6312 18.9881 95.0278 18.8338C95.4244 18.6795 95.8487 18.6094 96.2738 18.6278C97.4534 18.6269 98.5849 19.0945 99.4198 19.9278L101.32 16.9118C100.611 16.2362 99.7748 15.7088 98.8597 15.3606C97.9447 15.0124 96.9693 14.8503 95.9908 14.8838C94.9868 14.8364 93.9837 14.9967 93.0444 15.3546C92.1051 15.7125 91.2498 16.2603 90.5318 16.9638C89.8885 17.6094 89.3804 18.3767 89.0372 19.221C88.694 20.0653 88.5225 20.9695 88.5328 21.8808H88.5278ZM109.898 14.8878C107.916 14.828 105.989 15.536 104.517 16.8638C103.806 17.499 103.242 18.2816 102.865 19.1571C102.488 20.0326 102.306 20.9799 102.333 21.9328C102.304 22.8822 102.484 23.8264 102.862 24.6981C103.239 25.5697 103.804 26.3474 104.517 26.9758C106.015 28.2712 107.944 28.9578 109.924 28.8998C111.903 28.9578 113.833 28.2712 115.331 26.9758C116.043 26.3474 116.608 25.5697 116.986 24.6981C117.363 23.8264 117.544 22.8822 117.515 21.9328C117.548 20.9765 117.366 20.025 116.984 19.148C116.602 18.2709 116.028 17.4905 115.305 16.8638C113.827 15.5321 111.89 14.8236 109.902 14.8868L109.898 14.8878ZM106.882 21.9328C106.852 21.5134 106.908 21.0923 107.047 20.6955C107.186 20.2987 107.405 19.9345 107.69 19.6254C107.975 19.3162 108.32 19.0687 108.704 18.898C109.088 18.7273 109.503 18.637 109.924 18.6328C110.344 18.637 110.759 18.7273 111.144 18.898C111.528 19.0687 111.873 19.3162 112.158 19.6254C112.443 19.9345 112.662 20.2987 112.801 20.6955C112.939 21.0923 112.996 21.5134 112.966 21.9328C112.993 22.3478 112.934 22.7638 112.793 23.155C112.652 23.5462 112.432 23.9041 112.146 24.2066C111.861 24.509 111.516 24.7495 111.134 24.913C110.752 25.0764 110.34 25.1594 109.924 25.1568C109.508 25.1587 109.097 25.0752 108.715 24.9115C108.334 24.7477 107.99 24.5071 107.705 24.2047C107.42 23.9024 107.2 23.5446 107.06 23.1538C106.919 22.7629 106.86 22.3473 106.887 21.9328H106.882ZM124.014 28.5878V23.3878C124.014 20.8658 125.288 19.3578 127.706 19.3578C128.011 19.3436 128.317 19.3698 128.616 19.4358V15.0158C128.444 14.9893 128.27 14.972 128.096 14.9638C127.127 15.0057 126.196 15.3489 125.431 15.9455C124.667 16.542 124.108 17.3623 123.832 18.2918H123.78L123.832 17.4598V15.1978H119.521V28.5868L124.014 28.5878ZM134.829 28.5878V22.5308C134.829 20.4768 135.843 18.9688 137.741 18.9688C138.729 18.9688 139.223 19.5688 139.223 20.7368V28.5878H143.723V19.9048C143.723 16.5508 142.111 14.8878 138.914 14.8878C138.058 14.8406 137.207 15.0319 136.454 15.4405C135.701 15.8491 135.076 16.4589 134.65 17.2018H134.598L134.65 16.3698V15.1998H130.336V28.5888L134.829 28.5878ZM146.276 19.3328C146.203 21.8613 147.128 24.317 148.85 26.1698C149.706 27.0723 150.745 27.7824 151.897 28.2531C153.049 28.7237 154.287 28.9442 155.531 28.8998C156.827 28.9247 158.116 28.6864 159.318 28.1993C160.52 27.7122 161.61 26.9864 162.524 26.0658L161.484 24.7918C160.714 25.5718 159.795 26.188 158.781 26.6036C157.767 27.0191 156.679 27.2253 155.584 27.2098C154.574 27.2467 153.568 27.0608 152.638 26.6654C151.708 26.27 150.877 25.6747 150.203 24.9218C148.826 23.381 148.091 21.372 148.149 19.3068C148.081 17.2991 148.81 15.346 150.177 13.8738C150.859 13.1526 151.688 12.5849 152.606 12.2084C153.525 11.8318 154.513 11.655 155.506 11.6898C157.544 11.6928 159.518 12.3993 161.095 13.6898L162.057 12.3638C161.168 11.5526 160.127 10.9258 158.994 10.5196C157.861 10.1135 156.659 9.93614 155.457 9.99779C154.231 9.95818 153.01 10.176 151.873 10.6373C150.736 11.0985 149.709 11.793 148.857 12.6758C148.003 13.556 147.334 14.5989 146.891 15.7424C146.447 16.8859 146.238 18.1069 146.276 19.3328ZM164.214 21.9848C164.194 22.9007 164.362 23.811 164.705 24.6602C165.049 25.5093 165.563 26.2795 166.214 26.9238C166.851 27.569 167.613 28.0772 168.453 28.417C169.293 28.7568 170.195 28.9211 171.101 28.8998C172.007 28.9211 172.908 28.7568 173.749 28.417C174.589 28.0772 175.351 27.569 175.988 26.9238C176.648 26.2847 177.169 25.5161 177.518 24.6662C177.867 23.8162 178.036 22.9033 178.016 21.9848C178.036 21.0817 177.866 20.1845 177.516 19.3515C177.167 18.5185 176.646 17.7683 175.988 17.1498C175.346 16.513 174.583 16.0122 173.743 15.6772C172.903 15.3421 172.005 15.1798 171.101 15.1998C170.197 15.1798 169.298 15.3421 168.459 15.6772C167.619 16.0122 166.856 16.513 166.214 17.1498C165.564 17.7733 165.05 18.5249 164.705 19.3572C164.36 20.1894 164.192 21.0842 164.211 21.9848H164.214ZM166.034 21.9848C166.016 21.3032 166.136 20.625 166.386 19.9906C166.636 19.3563 167.012 18.7789 167.49 18.2928C167.954 17.803 168.515 17.4157 169.137 17.156C169.76 16.8963 170.43 16.7698 171.104 16.7848C171.778 16.7698 172.448 16.8963 173.071 17.156C173.693 17.4157 174.254 17.803 174.718 18.2928C175.204 18.774 175.587 19.35 175.842 19.985C176.097 20.6201 176.219 21.3007 176.2 21.9848C176.222 22.6854 176.102 23.3833 175.847 24.0363C175.593 24.6894 175.208 25.2842 174.718 25.7848C174.254 26.2746 173.693 26.6618 173.071 26.9216C172.448 27.1813 171.778 27.3077 171.104 27.2928C170.43 27.3077 169.76 27.1813 169.137 26.9216C168.515 26.6618 167.954 26.2746 167.49 25.7848C167.007 25.2794 166.63 24.6833 166.379 24.031C166.129 23.3787 166.011 22.6832 166.031 21.9848H166.034ZM182.828 28.5848V22.1848C182.805 21.4885 182.919 20.7945 183.165 20.1424C183.41 19.4904 183.781 18.8931 184.258 18.3848C184.705 17.8929 185.251 17.5017 185.861 17.2372C186.47 16.9727 187.129 16.841 187.794 16.8508C190.082 16.8508 190.654 18.2508 190.654 20.7248V28.5758H192.422V20.2568C192.422 16.9028 191.174 15.1878 188.028 15.1878C186.787 15.1379 185.569 15.5346 184.596 16.3058C183.797 16.9001 183.162 17.6873 182.75 18.5938H182.698L182.798 17.5538V15.5148H181.056V28.5918L182.828 28.5848ZM198.01 28.5848V22.1848C197.987 21.4885 198.101 20.7945 198.347 20.1424C198.592 19.4904 198.963 18.8931 199.44 18.3848C199.887 17.8929 200.433 17.5017 201.043 17.2372C201.652 16.9727 202.311 16.841 202.976 16.8508C205.264 16.8508 205.836 18.2508 205.836 20.7248V28.5758H207.604V20.2568C207.604 16.9028 206.356 15.1878 203.21 15.1878C201.967 15.14 200.749 15.5399 199.776 16.3148C198.977 16.9091 198.342 17.6963 197.93 18.6028H197.876L197.976 17.5628V15.5148H196.234V28.5918L198.01 28.5848ZM210.541 22.0598C210.509 22.969 210.665 23.8751 211.001 24.7207C211.336 25.5663 211.844 26.3332 212.491 26.9728C213.141 27.6033 213.911 28.0981 214.754 28.4284C215.597 28.7588 216.498 28.918 217.404 28.8968C219.181 28.8847 220.895 28.2394 222.239 27.0768L221.433 25.7248C220.357 26.738 218.932 27.2968 217.455 27.2848C216.132 27.3138 214.852 26.8184 213.893 25.9068C213.394 25.4109 213.003 24.8175 212.743 24.1638C212.484 23.51 212.362 22.8098 212.385 22.1068H222.42C222.446 21.7168 222.472 21.4308 222.472 21.2228C222.53 19.6668 222.022 18.1424 221.042 16.9328C220.552 16.349 219.932 15.8876 219.233 15.5852C218.533 15.2828 217.773 15.1477 217.012 15.1908C216.153 15.1694 215.3 15.3245 214.504 15.6465C213.707 15.9685 212.986 16.4506 212.384 17.0628C211.757 17.7301 211.27 18.5165 210.953 19.3754C210.636 20.2343 210.495 21.1482 210.538 22.0628L210.541 22.0598ZM212.462 20.7148C212.565 19.5971 213.086 18.5594 213.92 17.8079C214.753 17.0564 215.839 16.6462 216.962 16.6588C219.042 16.6588 220.576 18.1148 220.68 20.7148H212.462ZM224.655 22.0668C224.622 22.9799 224.779 23.8899 225.115 24.7397C225.45 25.5896 225.957 26.361 226.605 27.0058C227.256 27.6329 228.027 28.124 228.87 28.4502C229.714 28.7764 230.614 28.9313 231.518 28.9058C232.464 28.9228 233.405 28.7472 234.281 28.3896C235.158 28.032 235.953 27.5 236.618 26.8258L235.812 25.4998C235.27 26.064 234.62 26.5135 233.901 26.8216C233.182 27.1298 232.408 27.2904 231.626 27.2938C230.944 27.3114 230.266 27.1916 229.632 26.9414C228.997 26.6913 228.42 26.3159 227.934 25.8378C227.451 25.3392 227.073 24.7484 226.823 24.1008C226.573 23.4531 226.455 22.7617 226.478 22.0678C226.455 21.3693 226.572 20.6732 226.822 20.0206C227.072 19.368 227.45 18.772 227.934 18.2678C228.405 17.7819 228.971 17.3993 229.598 17.1442C230.225 16.889 230.898 16.767 231.574 16.7858C233.009 16.8057 234.38 17.3839 235.396 18.3978L236.306 17.0718C235.674 16.4562 234.925 15.9734 234.103 15.6519C233.282 15.3304 232.404 15.1767 231.522 15.1998C230.618 15.1773 229.718 15.3386 228.878 15.6738C228.038 16.0089 227.275 16.5111 226.635 17.1498C225.978 17.7837 225.462 18.5488 225.121 19.3953C224.78 20.2418 224.621 21.1507 224.654 22.0628L224.655 22.0668ZM239.837 23.8348C239.837 26.4608 240.955 27.6828 242.151 28.2548C242.861 28.5721 243.635 28.7232 244.413 28.6968C244.665 28.6952 244.917 28.6778 245.167 28.6448V27.0588C244.969 27.0926 244.768 27.11 244.567 27.1108C243.553 27.1108 241.603 26.6688 241.603 23.6528V17.1018H244.903V15.6148H241.603V11.8968H239.861V15.6148H238.119V17.0968H239.835L239.837 23.8348Z" fill="white"/>
<defs>
<filter id="filter0_d_1_704" x="0" y="0" width="44" height="43.9849" filterUnits="userSpaceOnUse" color-interpolation-filters="sRGB">
<feFlood flood-opacity="0" result="BackgroundImageFix"/>
<feColorMatrix in="SourceAlpha" type="matrix" values="0 0 0 0 0 0 0 0 0 0 0 0 0 0 0 0 0 0 127 0" result="hardAlpha"/>
<feOffset dy="3"/>
<feGaussianBlur stdDeviation="3"/>
<feColorMatrix type="matrix" values="0 0 0 0 0 0 0 0 0 0 0 0 0 0 0 0 0 0 0.161 0"/>
<feBlend mode="normal" in2="BackgroundImageFix" result="effect1_dropShadow_1_704"/>
<feBlend mode="normal" in="SourceGraphic" in2="effect1_dropShadow_1_704" result="shape"/>
</filter>
</defs>
</svg>
