<svg width="24" height="25" viewBox="0 0 24 25" fill="none"
                                xmlns="http://www.w3.org/2000/svg">
                                <circle cx="12" cy="12.7852" r="10" fill="#C13584" />
                                <path
                                    d="M12 7.86623C13.6021 7.86623 13.7918 7.87235 14.4245 7.90122C15.0095 7.92789 15.3272 8.02564 15.5386 8.10781C15.8187 8.21665 16.0186 8.34667 16.2285 8.55661C16.4385 8.76658 16.5685 8.96646 16.6773 9.24652C16.7595 9.45794 16.8573 9.77564 16.8839 10.3606C16.9128 10.9933 16.9189 11.1831 16.9189 12.7851C16.9189 14.3872 16.9128 14.577 16.8839 15.2096C16.8573 15.7946 16.7595 16.1123 16.6773 16.3238C16.5685 16.6038 16.4385 16.8037 16.2285 17.0136C16.0186 17.2236 15.8187 17.3536 15.5386 17.4625C15.3272 17.5446 15.0095 17.6424 14.4245 17.6691C13.7919 17.6979 13.6022 17.704 12 17.704C10.3978 17.704 10.2081 17.6979 9.57548 17.6691C8.99049 17.6424 8.67279 17.5446 8.46137 17.4625C8.18131 17.3536 7.98143 17.2236 7.77149 17.0136C7.56154 16.8037 7.4315 16.6038 7.32265 16.3238C7.24049 16.1123 7.14274 15.7946 7.11607 15.2096C7.0872 14.577 7.08108 14.3872 7.08108 12.7851C7.08108 11.1831 7.0872 10.9933 7.11607 10.3606C7.14274 9.77564 7.24049 9.45794 7.32265 9.24652C7.4315 8.96646 7.56152 8.76658 7.77149 8.55664C7.98143 8.34667 8.18131 8.21665 8.46137 8.10781C8.67279 8.02564 8.99049 7.92789 9.57548 7.90122C10.2082 7.87235 10.3979 7.86623 12 7.86623ZM12 6.78516C10.3705 6.78516 10.1662 6.79206 9.52621 6.82126C8.88758 6.85039 8.45142 6.95183 8.06977 7.10014C7.67522 7.25347 7.34061 7.45863 7.00703 7.79218C6.67347 8.12576 6.46831 8.46037 6.315 8.85492C6.16667 9.23656 6.06523 9.67272 6.03611 10.3114C6.00691 10.9513 6 11.1556 6 12.7851C6 14.4146 6.00691 14.619 6.03611 15.2589C6.06523 15.8975 6.16667 16.3337 6.315 16.7154C6.46831 17.1099 6.67347 17.4445 7.00703 17.7781C7.34061 18.1116 7.67522 18.3168 8.06977 18.4701C8.45142 18.6184 8.88758 18.7199 9.52621 18.749C10.1662 18.7782 10.3705 18.7851 12 18.7851C13.6295 18.7851 13.8338 18.7782 14.4738 18.749C15.1124 18.7199 15.5486 18.6184 15.9302 18.4701C16.3248 18.3168 16.6594 18.1116 16.993 17.7781C17.3265 17.4445 17.5317 17.1099 17.685 16.7154C17.8333 16.3337 17.9348 15.8975 17.9639 15.2589C17.9931 14.619 18 14.4146 18 12.7851C18 11.1556 17.9931 10.9513 17.9639 10.3114C17.9348 9.67272 17.8333 9.23656 17.685 8.85492C17.5317 8.46037 17.3265 8.12576 16.993 7.79218C16.6594 7.45863 16.3248 7.25347 15.9302 7.10014C15.5486 6.95183 15.1124 6.85039 14.4738 6.82126C13.8338 6.79206 13.6295 6.78516 12 6.78516Z"
                                    fill="white" />
                                <path
                                    d="M12.003 9.70703C10.3013 9.70703 8.92188 11.0865 8.92188 12.7881C8.92188 14.4897 10.3013 15.8692 12.003 15.8692C13.7046 15.8692 15.084 14.4897 15.084 12.7881C15.084 11.0865 13.7046 9.70703 12.003 9.70703ZM12.003 14.7881C10.8984 14.7881 10.003 13.8927 10.003 12.7881C10.003 11.6835 10.8984 10.7881 12.003 10.7881C13.1075 10.7881 14.003 11.6835 14.003 12.7881C14.003 13.8927 13.1075 14.7881 12.003 14.7881Z"
                                    fill="white" />
                                <path
                                    d="M15.9254 9.58329C15.9254 9.98092 15.603 10.3033 15.2053 10.3033C14.8077 10.3033 14.4854 9.98092 14.4854 9.58329C14.4854 9.18564 14.8077 8.86328 15.2053 8.86328C15.603 8.86328 15.9254 9.18564 15.9254 9.58329Z"
                                    fill="white" />
                            </svg>